<svg width="148" height="148" viewBox="0 0 148 148" fill="none" xmlns="http://www.w3.org/2000/svg">
<path d="M24.2935 105.364C17.8902 105.367 12.6871 100.157 12.6859 93.7549L12.6836 58.2129C12.6813 51.8165 17.8833 46.6076 24.2785 46.6064C27.3876 46.6041 30.2991 47.8101 32.4936 50.0024C34.6882 52.1946 35.8953 55.1107 35.8976 58.2106L35.8942 93.7537C35.9022 96.8513 34.6986 99.765 32.5052 101.956C30.3176 104.153 27.398 105.362 24.2935 105.364ZM24.2842 49.7249C19.598 49.7225 15.7997 53.5301 15.7985 58.2129L15.8043 93.7514C15.8055 98.4504 19.6107 102.243 24.2923 102.248C28.9832 102.242 32.7827 98.4492 32.7781 93.7525V58.2083C32.7757 53.5266 28.9728 49.7225 24.2842 49.7249" fill="#e3e3e3"/>
<path d="M115.325 51.4846L112.206 51.4834L35.7558 51.4938L32.6351 51.495L32.6328 48.3743C32.6259 35.563 39.605 23.6479 51.0368 16.6086L46.5922 8.49522C46.0488 7.54479 45.9124 6.34113 46.2292 5.24038C46.5506 4.13963 47.3103 3.19266 48.3266 2.65154C48.9151 2.31854 49.6343 2.13354 50.3604 2.13469C51.9353 2.13469 53.3771 2.98916 54.1379 4.36972L58.7895 12.8439C63.603 11.0783 68.6847 10.1776 73.9352 10.1787C79.2609 10.1764 84.3681 11.0771 89.2024 12.8508L93.847 4.36279C94.5951 2.98569 96.0474 2.12776 97.6199 2.12891C98.3275 2.12776 99.0339 2.30004 99.656 2.63535C100.7 3.20769 101.429 4.12229 101.749 5.23113C102.068 6.33304 101.94 7.49622 101.381 8.50563L96.9388 16.6144C108.352 23.6687 115.323 35.5746 115.322 48.3639L115.325 51.4846V51.4846ZM92.7254 17.81L98.6489 6.99326C98.9646 6.42785 98.7588 5.70404 98.1876 5.39069C97.6083 5.07735 96.8937 5.29126 96.5873 5.85897L90.6026 16.7855C85.5683 14.5493 79.9315 13.2925 73.9734 13.2983C68.0279 13.2925 62.4016 14.5447 57.3823 16.7728L51.3918 5.87054C51.0831 5.29588 50.3616 5.08544 49.7973 5.40226C49.2227 5.70982 49.0111 6.43247 49.3314 6.99672L55.2572 17.8053C43.6137 23.8109 35.7466 35.2462 35.7535 48.3754L112.202 48.3662C112.206 35.2416 104.353 23.8294 92.7254 17.81V17.81ZM56.5857 34.5259C54.827 34.5224 53.391 33.091 53.391 31.3219C53.391 29.5609 54.8247 28.1145 56.5892 28.1145C58.3617 28.1133 59.7954 29.5609 59.7978 31.3219C59.7989 33.0887 58.3617 34.5247 56.5857 34.5259ZM91.3969 34.5189C89.6302 34.5213 88.1883 33.091 88.1918 31.315C88.1918 29.5563 89.6278 28.1098 91.3981 28.1029C93.1567 28.1087 94.5986 29.5575 94.5974 31.3161C94.5974 33.0863 93.1625 34.5201 91.3969 34.5189V34.5189ZM59.7897 145.872C53.3921 145.87 48.1855 140.667 48.1844 134.265L48.1821 118.578L45.1319 118.582C41.8747 118.583 38.8176 117.317 36.5201 115.018C34.2192 112.722 32.9508 109.661 32.9554 106.402L32.9438 51.3331V48.2101H36.0646L111.941 48.1985L115.063 48.1962V51.3169L115.071 106.393C115.072 113.109 109.608 118.575 102.894 118.574L99.8248 118.576L99.8283 134.257C99.8283 140.656 94.6228 145.865 88.2276 145.865C85.1277 145.872 82.2186 144.667 80.0206 142.469C77.8225 140.277 76.6119 137.363 76.6131 134.264V118.576H71.3973V134.261C71.3949 140.66 66.1907 145.873 59.7897 145.872" fill="#e3e3e3"/>
<path d="M36.0803 106.401C36.0757 111.415 40.1237 115.463 45.1349 115.462H51.3012L51.3081 134.268C51.3069 138.95 55.111 142.756 59.7892 142.757C64.4789 142.757 68.2784 138.947 68.2738 134.261L68.2749 115.461L79.7322 115.458L79.731 134.262C79.7357 138.946 83.5444 142.756 88.2214 142.746C92.9111 142.75 96.7129 138.94 96.7117 134.255L96.7059 115.455L102.895 115.454C107.889 115.455 111.951 111.398 111.951 106.393L111.941 51.3147L36.0664 51.3286L36.0803 106.401ZM123.714 105.349C117.313 105.35 112.106 100.148 112.107 93.7445L112.098 58.2037C112.1 51.8015 117.299 46.5938 123.696 46.5938C130.102 46.5926 135.312 51.7992 135.311 58.2002L135.314 93.7387C135.315 100.137 130.113 105.35 123.714 105.349V105.349ZM123.702 49.7145C119.016 49.7098 115.219 53.5151 115.219 58.2037L115.222 93.7433C115.224 98.4365 119.022 102.234 123.711 102.23C128.399 102.229 132.192 98.4365 132.196 93.7398L132.187 58.2013C132.185 53.5116 128.391 49.7122 123.702 49.7145" fill="#e3e3e3"/>
<path d="M24.2865 49.7247C19.6002 49.7224 15.8019 53.5299 15.8008 58.2127L15.8066 93.7512C15.8077 98.4502 19.6083 102.243 24.2957 102.242C28.9855 102.242 32.7849 98.4491 32.7803 93.7524V58.2081C32.778 53.5264 28.9751 49.7224 24.2865 49.7247V49.7247ZM92.7272 17.8099L98.6507 6.99315C98.9664 6.42775 98.7594 5.70856 98.1871 5.38828C97.6089 5.08187 96.8955 5.29 96.5891 5.85887L90.6055 16.7889C85.5712 14.5481 79.9368 13.2924 73.9752 13.2982C68.0297 13.2924 62.3977 14.5446 57.3842 16.7727L51.3936 5.87043C51.0826 5.29578 50.3657 5.08765 49.8003 5.401C49.2245 5.71203 49.0129 6.43237 49.3332 6.99662L55.259 17.8064C43.6155 23.8108 35.7484 35.2461 35.7553 48.3753L112.204 48.3661C112.208 35.2415 104.354 23.8293 92.7272 17.8099V17.8099ZM56.5875 34.5258C54.8288 34.5223 53.3928 33.0909 53.3928 31.3218C53.3928 29.5608 54.8242 28.1132 56.591 28.1144C58.3635 28.1132 59.7972 29.5608 59.7996 31.3218C59.8007 33.0886 58.3635 34.5246 56.5875 34.5258ZM91.3987 34.5188C89.632 34.5212 88.1936 33.0886 88.1936 31.3149C88.2005 29.5574 89.6297 28.1097 91.3999 28.1028C93.1585 28.1086 94.6004 29.5574 94.5992 31.316C94.6015 33.0862 93.1643 34.52 91.3987 34.5188V34.5188ZM36.0675 51.3284L36.0803 106.406C36.0768 111.416 40.1294 115.461 45.136 115.461L51.3023 115.463L51.3092 134.269C51.3081 138.951 55.1144 142.758 59.7903 142.758C64.4801 142.758 68.2795 138.948 68.2807 134.263L68.276 115.462L79.7333 115.459L79.7379 134.263C79.7379 138.942 83.5455 142.757 88.2225 142.747C92.9123 142.751 96.714 138.941 96.7128 134.256L96.7071 115.456L102.895 115.452C107.89 115.454 111.953 111.405 111.956 106.394L111.945 51.3157L36.0675 51.3284V51.3284ZM132.191 58.2C132.19 53.5114 128.392 49.712 123.703 49.7143C119.017 49.7096 115.22 53.5149 115.22 58.2035L115.227 93.7443C115.226 98.4363 119.023 102.229 123.712 102.23C128.4 102.229 132.196 98.4363 132.197 93.7397L132.191 58.2Z" fill="#A4C439"/>
</svg>
