<svg width="148" height="148" viewBox="0 0 148 148" fill="none" xmlns="http://www.w3.org/2000/svg">
<path d="M148 123.333C148 136.9 136.9 148 123.333 148H24.6667C11.1 148 0 136.9 0 123.333V24.6667C0 11.1 11.1 0 24.6667 0H123.333C136.9 0 148 11.1 148 24.6667V123.333Z" fill="#563D7C"/>
<path d="M40.2148 32.1631H82.1724C89.9109 32.1631 96.126 33.9284 100.793 37.4833C105.461 41.0382 107.806 46.3827 107.806 53.565C107.806 57.918 106.742 61.6422 104.614 64.7376C102.486 67.833 99.439 70.2513 95.473 71.9441V72.186C100.793 73.3226 104.832 75.8376 107.565 79.7311C110.297 83.6487 111.676 88.5337 111.676 94.4343C111.676 97.8199 111.071 100.988 109.862 103.914C108.653 106.864 106.766 109.404 104.179 111.532C101.591 113.66 98.3024 115.353 94.2639 116.61C90.2253 117.868 85.4371 118.496 79.875 118.496H40.2148V32.1631ZM55.3292 68.3167H79.9959C83.6233 68.3167 86.6462 67.301 89.0645 65.2213C91.4828 63.1415 92.692 60.1912 92.692 56.3219C92.692 51.969 91.6037 48.8977 89.4273 47.1324C87.2508 45.367 84.107 44.4722 79.9959 44.4722H55.3292V68.3167ZM55.3292 106.163H82.0514C86.6462 106.163 90.2253 104.978 92.7403 102.584C95.2795 100.214 96.5612 96.8284 96.5612 92.4755C96.5612 88.1951 95.3037 84.9304 92.7403 82.6088C90.1769 80.2873 86.6462 79.1748 82.0514 79.1748H55.3292V106.163Z" fill="white"/>
</svg>
