<svg width="148" height="148" viewBox="0 0 148 148" fill="none" xmlns="http://www.w3.org/2000/svg">
<path d="M21.7538 131.955L10.1289 1.56348H137.871L126.235 131.935L73.9227 146.438L21.7538 131.955V131.955Z" fill="#1572B6"/>
<path d="M74 135.353L116.271 123.633L126.216 12.2236H74V135.353Z" fill="#33A9DC"/>
<path d="M74 59.4647H95.1617L96.6232 43.0888H74V27.0967H114.101L113.717 31.3875L109.786 75.4568H74V59.4647V59.4647Z" fill="white"/>
<path d="M74.0976 100.998L74.027 101.019L56.2173 96.2097L55.0784 83.4551H39.0273L41.267 108.565L74.0247 117.657L74.0976 117.636V100.998V100.998Z" fill="#EBEBEB"/>
<path d="M93.8017 74.7803L91.8754 96.1963L74.0391 101.011V117.649L106.823 108.564L107.064 105.861L109.846 74.7803H93.8017Z" fill="white"/>
<path d="M74.0555 27.0967V43.0888H35.4275L35.1073 39.4952L34.3788 31.3875L33.9961 27.0967H74.0555V27.0967ZM74.0012 59.4671V75.4592H56.4158L56.0955 71.8655L55.3659 63.7579L54.9843 59.4671H74.0012V59.4671Z" fill="#EBEBEB"/>
</svg>
