<svg width="375" height="377" viewBox="0 0 375 377" fill="none" xmlns="http://www.w3.org/2000/svg">
<rect width="375" height="377" fill="#3F3F3F"/>
<path fill-rule="evenodd" clip-rule="evenodd" d="M295.562 125.248C297.23 129.4 298.148 133.934 298.148 138.683C298.148 158.593 282.009 174.732 262.099 174.732C242.19 174.732 226.05 158.593 226.05 138.683C226.05 134.236 226.855 129.977 228.328 126.044L227.438 125.568C225.895 129.645 225.05 134.066 225.05 138.683C225.05 159.145 241.637 175.732 262.099 175.732C282.561 175.732 299.148 159.145 299.148 138.683C299.148 133.764 298.19 129.069 296.449 124.774L295.562 125.248ZM236.201 130.247C235.336 132.903 234.868 135.739 234.868 138.684C234.868 153.722 247.059 165.912 262.097 165.912C277.136 165.912 289.326 153.722 289.326 138.684C289.326 135.437 288.758 132.323 287.716 129.436L286.824 129.913C287.797 132.655 288.326 135.607 288.326 138.684C288.326 153.169 276.583 164.912 262.097 164.912C247.612 164.912 235.868 153.169 235.868 138.684C235.868 135.909 236.299 133.235 237.097 130.725L236.201 130.247ZM243.564 134.178C243.134 135.756 242.903 137.416 242.903 139.13C242.903 149.484 251.297 157.878 261.651 157.878C272.005 157.878 280.399 149.484 280.399 139.13C280.399 137.264 280.126 135.461 279.618 133.76L278.717 134.241C279.161 135.794 279.399 137.434 279.399 139.13C279.399 148.932 271.453 156.878 261.651 156.878C251.849 156.878 243.903 148.932 243.903 139.13C243.903 137.587 244.1 136.09 244.471 134.662L243.564 134.178Z" fill="#828282"/>
<circle cx="261.66" cy="133.701" r="9.82029" fill="#9A9A98"/>
<path fill-rule="evenodd" clip-rule="evenodd" d="M251 136.161C252.295 141.263 256.506 145 261.5 145C266.495 145 270.705 141.263 272 136.161H251Z" fill="#3A3636"/>
<rect x="281" y="110" width="40.1739" height="62.4928" fill="#3F3F3F"/>
<g filter="url(#filter0_d)">
<line x1="287.539" y1="77.3867" x2="242.901" y2="77.3867" stroke="#292929" stroke-width="7"/>
<line x1="242.902" y1="122.025" x2="192.015" y2="122.025" stroke="#292929" stroke-width="7"/>
<line x1="190.23" y1="299.683" x2="88.4566" y2="299.683" stroke="#292929" stroke-width="7"/>
<path d="M342 299.308L236.655 299.308" stroke="#292929" stroke-width="7"/>
<path d="M141.129 248.867H83.9927" stroke="#292929" stroke-width="7"/>
<line x1="134.879" y1="114.883" x2="84.8847" y2="114.883" stroke="#292929" stroke-width="7"/>
<line x1="188.516" y1="297.076" x2="188.516" y2="118.525" stroke="#292929" stroke-width="7"/>
<path d="M188.891 347.069V296.182" stroke="#292929" stroke-width="7"/>
<path d="M37.1211 23L37.1211 347.07" stroke="#292929" stroke-width="7"/>
<path d="M341.105 23L341.105 352.872" stroke="#292929" stroke-width="7"/>
<line x1="87.4961" y1="111.383" x2="87.4961" y2="200.658" stroke="#292929" stroke-width="7"/>
<line x1="240.156" y1="171.197" x2="240.156" y2="296.183" stroke="#292929" stroke-width="7"/>
<line x1="87.4922" y1="251.545" x2="87.4922" y2="302.432" stroke="#292929" stroke-width="7"/>
<line x1="87.4922" y1="23" x2="87.4922" y2="67.6377" stroke="#292929" stroke-width="7"/>
<path d="M294.684 349.747L33.9995 349.747" stroke="#292929" stroke-width="7"/>
<line x1="339.32" y1="26.5" x2="83.9928" y2="26.5" stroke="#292929" stroke-width="7"/>
<path d="M188.891 73.8867L188.891 24.7853" stroke="#292929" stroke-width="7"/>
<line x1="137.629" y1="251.545" x2="137.629" y2="162.27" stroke="#292929" stroke-width="7"/>
<path d="M138.004 117.632L138.004 29.2492" stroke="#292929" stroke-width="7"/>
<line x1="284.5" y1="74" x2="284.5" y2="296.296" stroke="#292929" stroke-width="7"/>
</g>
<circle cx="62.1207" cy="116.293" r="3.12464" fill="#E1A103"/>
<circle cx="62.1207" cy="66.2985" r="3.12464" fill="#E1A103"/>
<circle cx="62.1207" cy="166.287" r="3.12464" fill="#E1A103"/>
<circle cx="112.113" cy="166.287" r="3.12464" fill="#E1A103"/>
<circle cx="62.1207" cy="28.8033" r="3.12464" fill="#E1A103"/>
<circle cx="62.1207" cy="128.791" r="3.12464" fill="#E1A103"/>
<circle cx="62.1207" cy="78.7975" r="3.12464" fill="#E1A103"/>
<circle cx="62.1207" cy="178.786" r="3.12464" fill="#E1A103"/>
<circle cx="112.113" cy="178.786" r="3.12464" fill="#E1A103"/>
<circle cx="62.1207" cy="41.3014" r="3.12464" fill="#E1A103"/>
<circle cx="62.1207" cy="141.29" r="3.12464" fill="#E1A103"/>
<circle cx="112.113" cy="141.29" r="3.12464" fill="#E1A103"/>
<circle cx="62.1207" cy="91.2965" r="3.12464" fill="#E1A103"/>
<circle cx="62.1207" cy="191.284" r="3.12464" fill="#E1A103"/>
<circle cx="162.109" cy="103.795" r="3.12464" fill="#E1A103"/>
<circle cx="262.097" cy="103.795" r="3.12464" fill="#E1A103"/>
<circle cx="112.113" cy="191.284" r="3.12464" fill="#E1A103"/>
<circle cx="62.1207" cy="53.8004" r="3.12464" fill="#E1A103"/>
<circle cx="62.1207" cy="153.789" r="3.12464" fill="#E1A103"/>
<circle cx="112.113" cy="153.789" r="3.12464" fill="#E1A103"/>
<circle cx="62.1207" cy="103.795" r="3.12464" fill="#E1A103"/>
<circle cx="62.1207" cy="203.783" r="3.12464" fill="#E1A103"/>
<circle cx="162.109" cy="116.293" r="3.12464" fill="#E1A103"/>
<circle cx="262.097" cy="116.293" r="3.12464" fill="#E1A103"/>
<circle cx="112.113" cy="203.783" r="3.12464" fill="#E1A103"/>
<circle cx="62.1207" cy="216.282" r="3.12464" fill="#E1A103"/>
<circle cx="62.1207" cy="228.78" r="3.12464" fill="#E1A103"/>
<circle cx="162.109" cy="128.791" r="3.12464" fill="#E1A103"/>
<circle cx="112.113" cy="141.29" r="3.12464" fill="#E1A103"/>
<circle cx="112.113" cy="216.282" r="3.12464" fill="#E1A103"/>
<circle cx="74.6207" cy="228.78" r="3.12464" fill="#E1A103"/>
<circle cx="124.613" cy="141.29" r="3.12464" fill="#E1A103"/>
<circle cx="174.609" cy="103.795" r="3.12464" fill="#E1A103"/>
<circle cx="224.601" cy="103.795" r="3.12464" fill="#E1A103"/>
<circle cx="87.1168" cy="228.78" r="3.12464" fill="#E1A103"/>
<circle cx="137.109" cy="141.29" r="3.12464" fill="#E1A103"/>
<circle cx="187.105" cy="103.795" r="3.12464" fill="#E1A103"/>
<circle cx="237.097" cy="103.795" r="3.12464" fill="#E1A103"/>
<circle cx="99.6168" cy="228.78" r="3.12464" fill="#E1A103"/>
<circle cx="149.609" cy="141.29" r="3.12464" fill="#E1A103"/>
<circle cx="199.605" cy="103.795" r="3.12464" fill="#E1A103"/>
<circle cx="249.597" cy="103.795" r="3.12464" fill="#E1A103"/>
<circle cx="112.113" cy="216.282" r="3.12464" fill="#E1A103"/>
<circle cx="112.113" cy="228.78" r="3.12464" fill="#E1A103"/>
<circle cx="162.109" cy="141.29" r="3.12464" fill="#E1A103"/>
<circle cx="212.105" cy="103.795" r="3.12464" fill="#E1A103"/>
<defs>
<filter id="filter0_d" x="33.6211" y="23" width="310.984" height="334.247" filterUnits="userSpaceOnUse" color-interpolation-filters="sRGB">
<feFlood flood-opacity="0" result="BackgroundImageFix"/>
<feColorMatrix in="SourceAlpha" type="matrix" values="0 0 0 0 0 0 0 0 0 0 0 0 0 0 0 0 0 0 127 0"/>
<feOffset dy="4"/>
<feColorMatrix type="matrix" values="0 0 0 0 0.215686 0 0 0 0 0.215686 0 0 0 0 0.215686 0 0 0 1 0"/>
<feBlend mode="normal" in2="BackgroundImageFix" result="effect1_dropShadow"/>
<feBlend mode="normal" in="SourceGraphic" in2="effect1_dropShadow" result="shape"/>
</filter>
</defs>
</svg>
