<svg width="148" height="148" viewBox="0 0 148 148" fill="none" xmlns="http://www.w3.org/2000/svg">
<path d="M22.0097 131.669L10.4414 1.9209H137.555L125.974 131.65L73.9207 146.08L22.0097 131.669Z" fill="#E44D26"/>
<path d="M74 135.05L116.062 123.388L125.958 12.5293H74V135.05Z" fill="#F16529"/>
<path d="M74.001 60.6509H52.9434L51.4888 44.3547H74.001V28.4424H34.0977L34.4792 32.7113L38.3897 76.5644H74.001V60.6509ZM74.001 101.979L73.9305 101.998L56.2086 97.2115L55.0767 84.5217H39.1008L41.33 109.507L73.9281 118.556L74.001 118.536V101.979Z" fill="#EBEBEB"/>
<path d="M73.9453 60.6509V76.5644H93.5403L91.6938 97.2023L73.9453 101.993V118.549L106.569 109.507L106.808 106.819L110.548 64.9244L110.935 60.6509H106.648H73.9453ZM73.9453 28.4424V44.3547H112.384L112.703 40.7796L113.429 32.7113L113.809 28.4424H73.9453Z" fill="white"/>
</svg>
