<svg width="148" height="148" viewBox="0 0 148 148" fill="none" xmlns="http://www.w3.org/2000/svg">
<path d="M60.7957 78.4134C60.7957 78.4134 56.9986 80.623 63.5025 81.37C71.3812 82.2695 75.4084 82.14 84.0895 80.4993C84.0895 80.4993 86.3777 81.9296 89.5643 83.1691C70.0977 91.5091 45.5066 82.6858 60.7957 78.4134ZM58.415 67.5273C58.415 67.5273 54.1554 70.6827 60.6639 71.3557C69.0814 72.224 75.7264 72.2957 87.2333 70.0803C87.2333 70.0803 88.8209 71.6945 91.3219 72.5744C67.7899 79.4587 41.5788 73.1166 58.415 67.5273V67.5273Z" fill="#0074BD"/>
<path d="M78.4684 49.0601C83.268 54.5847 77.2104 59.5519 77.2104 59.5519C77.2104 59.5519 89.3892 53.2654 83.7964 45.3902C78.5713 38.0492 74.5672 34.4035 96.2504 21.8281C96.2516 21.8281 62.2127 30.3266 78.4684 49.0601Z" fill="#EA2D2E"/>
<path d="M104.214 86.4665C104.214 86.4665 107.026 88.7847 101.118 90.5769C89.8834 93.9798 54.3542 95.0065 44.4856 90.7122C40.9405 89.1686 47.5924 87.0272 49.6841 86.5775C51.8659 86.1046 53.1123 86.1913 53.1123 86.1913C49.1672 83.4128 27.6112 91.6476 42.1638 94.0098C81.8509 100.442 114.507 91.1123 104.214 86.4665V86.4665ZM62.6237 56.2491C62.6237 56.2491 44.5526 60.5422 56.225 62.1031C61.1552 62.7622 70.9764 62.6107 80.1316 61.843C87.6114 61.2151 95.1178 59.8727 95.1178 59.8727C95.1178 59.8727 92.4827 61.0035 90.5737 62.3055C72.2194 67.1328 36.7699 64.8839 46.9761 59.949C55.6052 55.7738 62.6237 56.2491 62.6237 56.2491V56.2491ZM95.0426 74.3675C113.699 64.6758 105.072 55.3611 99.0513 56.6156C97.5794 56.9231 96.918 57.1891 96.918 57.1891C96.918 57.1891 97.4673 56.3288 98.5113 55.96C110.423 51.7744 119.582 68.3099 94.6703 74.8589C94.6703 74.8589 94.9559 74.5999 95.0426 74.3675Z" fill="#0074BD"/>
<path d="M83.7982 1.51758C83.7982 1.51758 94.1293 11.8533 73.9979 27.7436C57.8543 40.4936 70.3164 47.7618 73.9909 56.0694C64.5675 47.5664 57.6554 40.0808 62.292 33.1156C69.1011 22.892 87.9653 17.9329 83.7982 1.51758V1.51758Z" fill="#EA2D2E"/>
<path d="M64.4561 100.639C82.3595 101.784 109.861 100.002 110.512 91.5303C110.512 91.5303 109.261 94.7412 95.713 97.2896C80.4297 100.166 61.5771 99.8322 50.3984 97.9868C50.3984 97.9868 52.6878 99.883 64.4561 100.639V100.639Z" fill="#0074BD"/>
<path d="M109.686 115.833H109.141V115.528H110.609V115.833H110.066V117.356H109.685L109.686 115.833V115.833ZM112.618 115.91H112.611L112.069 117.356H111.82L111.282 115.91H111.276V117.356H110.916V115.528H111.444L111.942 116.822L112.442 115.528H112.967V117.356H112.618V115.91V115.91ZM61.5228 133.011C59.8347 134.474 58.0494 135.298 56.4457 135.298C54.1633 135.298 52.9249 133.926 52.9249 131.731C52.9249 129.355 54.25 127.614 59.5595 127.614H61.5217V133.011H61.5228ZM66.1837 138.269V121.993C66.1837 117.831 63.8099 115.086 58.0934 115.086C54.7564 115.086 51.8311 115.912 49.4527 116.962L50.1372 119.844C52.0103 119.156 54.4327 118.518 56.8099 118.518C60.1053 118.518 61.5217 119.844 61.5217 122.589V124.646H59.8752C51.8728 124.646 48.2618 127.751 48.2618 132.42C48.2618 136.442 50.6413 138.728 55.1218 138.728C58.0009 138.728 60.1527 137.54 62.1611 135.799L62.5264 138.27H66.1837V138.269V138.269ZM81.7375 138.269H75.9251L68.9286 115.504H74.0057L78.3486 129.493L79.314 133.696C81.5063 127.617 83.0603 121.445 83.8373 115.505H88.7756C87.454 122.999 85.0722 131.228 81.7375 138.269ZM104.039 133.011C102.345 134.474 100.559 135.298 98.961 135.298C96.6763 135.298 95.4391 133.926 95.4391 131.731C95.4391 129.355 96.7676 127.614 102.071 127.614H104.038V133.011H104.039ZM108.702 138.269V121.993C108.702 117.831 106.322 115.086 100.61 115.086C97.2694 115.086 94.3453 115.912 91.9669 116.962L92.6525 119.844C94.5257 119.156 96.9515 118.518 99.3287 118.518C102.619 118.518 104.039 119.844 104.039 122.589V124.646H102.393C94.3881 124.646 90.7783 127.751 90.7783 132.42C90.7783 136.442 93.1555 138.728 97.6348 138.728C100.515 138.728 102.663 137.54 104.678 135.799L105.045 138.27H108.702V138.269V138.269ZM43.1512 142.138C41.8249 144.079 39.6766 145.616 37.3271 146.482L35.0273 143.771C36.8161 142.853 38.3481 141.371 39.0615 139.991C39.6766 138.762 39.9322 137.181 39.9322 133.399V107.404H44.8855V133.042C44.8855 138.1 44.4832 140.146 43.1512 142.138V142.138Z" fill="#EA2D2E"/>
</svg>
