<svg width="148" height="148" viewBox="0 0 148 148" fill="none" xmlns="http://www.w3.org/2000/svg">
<path d="M1.625 1.62793H146.369V146.373H1.625V1.62793Z" fill="#F0DB4F"/>
<path d="M134.527 111.851C133.467 105.248 129.161 99.7013 116.406 94.5293C111.976 92.4932 107.036 91.0352 105.564 87.6774C105.042 85.7234 104.972 84.6226 105.303 83.4398C106.252 79.601 110.834 78.4043 114.466 79.505C116.805 80.289 119.02 82.0916 120.355 84.9672C126.601 80.9226 126.588 80.9492 130.95 78.1696C129.353 75.694 128.501 74.5517 127.456 73.4925C123.699 69.2965 118.58 67.1355 110.394 67.3008L106.13 67.8523C102.043 68.8849 98.1492 71.0297 95.8656 73.9053C89.0137 81.6799 90.9678 95.2867 99.3055 100.886C107.519 107.052 119.586 108.454 121.127 114.219C122.627 121.277 115.94 123.562 109.294 122.75C104.396 121.731 101.672 119.242 98.7273 114.715C93.3068 117.852 93.3068 117.852 87.7337 121.057C89.0553 123.947 90.444 125.254 92.6593 127.758C103.144 138.393 129.382 137.87 134.088 121.773C134.279 121.22 135.546 117.534 134.527 111.851V111.851ZM80.3164 68.153H66.7778L66.7223 103.155C66.7223 110.599 67.1074 117.423 65.8968 119.515C63.9161 123.629 58.7835 123.119 56.4444 122.321C54.0637 121.151 52.8531 119.487 51.4506 117.135C51.0656 116.46 50.7765 115.937 50.6794 115.897L39.6719 122.638C41.5022 126.394 44.1986 129.655 47.6523 131.773C52.8115 134.87 59.7455 135.819 66.9975 134.154C71.7173 132.779 75.7897 129.931 77.9218 125.597C81.0043 119.914 80.343 113.035 80.3152 105.427C80.3846 93.0147 80.3164 80.6046 80.3164 68.153Z" fill="#323330"/>
</svg>
