<svg width="375" height="377" viewBox="0 0 375 377" fill="none" xmlns="http://www.w3.org/2000/svg">
<rect width="375" height="377" fill="#3F3F3F"/>
<line x1="294.195" y1="73.4121" x2="247.858" y2="73.4121" stroke="#292929" stroke-width="7"/>
<line x1="247.859" y1="119.827" x2="195.035" y2="119.827" stroke="#292929" stroke-width="7"/>
<line x1="193.18" y1="304.554" x2="87.5301" y2="304.554" stroke="#292929" stroke-width="7"/>
<path d="M350.727 304.303L241.37 304.303" stroke="#292929" stroke-width="7"/>
<path d="M142.211 251.855H82.8989" stroke="#292929" stroke-width="7"/>
<line x1="135.727" y1="112.4" x2="83.8285" y2="112.4" stroke="#292929" stroke-width="7"/>
<line x1="191.539" y1="301.982" x2="191.539" y2="116.326" stroke="#292929" stroke-width="7"/>
<path d="M191.789 353.966V301.054" stroke="#292929" stroke-width="7"/>
<path d="M34.2422 17L34.2422 353.966" stroke="#292929" stroke-width="7"/>
<path d="M349.805 17L349.805 360" stroke="#292929" stroke-width="7"/>
<line x1="86.4062" y1="108.9" x2="86.4062" y2="201.729" stroke="#292929" stroke-width="7"/>
<line x1="244.875" y1="171.095" x2="244.875" y2="301.054" stroke="#292929" stroke-width="7"/>
<line x1="297.695" y1="69.9121" x2="297.695" y2="301.054" stroke="#292929" stroke-width="7"/>
<line x1="86.3984" y1="254.64" x2="86.3984" y2="307.552" stroke="#292929" stroke-width="7"/>
<line x1="86.3984" y1="17" x2="86.3984" y2="63.4141" stroke="#292929" stroke-width="7"/>
<path d="M301.609 356.751L30.998 356.751" stroke="#292929" stroke-width="7"/>
<line x1="347.945" y1="20.5" x2="82.8945" y2="20.5" stroke="#292929" stroke-width="7"/>
<path d="M191.789 69.9121L191.789 18.8566" stroke="#292929" stroke-width="7"/>
<line x1="138.711" y1="254.64" x2="138.711" y2="161.812" stroke="#292929" stroke-width="7"/>
<path d="M138.961 115.397L138.961 23.4976" stroke="#292929" stroke-width="7"/>
<ellipse cx="60.1968" cy="114.005" rx="3.24363" ry="3.24898" fill="#E1A103"/>
<ellipse cx="60.1968" cy="62.0214" rx="3.24363" ry="3.24898" fill="#E1A103"/>
<ellipse cx="60.1968" cy="165.989" rx="3.24363" ry="3.24898" fill="#E1A103"/>
<ellipse cx="112.091" cy="165.989" rx="3.24363" ry="3.24898" fill="#E1A103"/>
<ellipse cx="60.1968" cy="23.0341" rx="3.24363" ry="3.24898" fill="#E1A103"/>
<ellipse cx="60.1968" cy="127.002" rx="3.24363" ry="3.24898" fill="#E1A103"/>
<ellipse cx="60.1968" cy="75.0166" rx="3.24363" ry="3.24898" fill="#E1A103"/>
<ellipse cx="60.1968" cy="178.985" rx="3.24363" ry="3.24898" fill="#E1A103"/>
<ellipse cx="112.091" cy="178.985" rx="3.24363" ry="3.24898" fill="#E1A103"/>
<ellipse cx="60.1968" cy="36.0293" rx="3.24363" ry="3.24898" fill="#E1A103"/>
<ellipse cx="60.1968" cy="139.998" rx="3.24363" ry="3.24898" fill="#E1A103"/>
<ellipse cx="112.091" cy="139.998" rx="3.24363" ry="3.24898" fill="#E1A103"/>
<ellipse cx="60.1968" cy="88.0136" rx="3.24363" ry="3.24898" fill="#E1A103"/>
<ellipse cx="60.1968" cy="191.981" rx="3.24363" ry="3.24898" fill="#E1A103"/>
<ellipse cx="163.986" cy="101.01" rx="3.24363" ry="3.24898" fill="#E1A103"/>
<ellipse cx="267.787" cy="101.01" rx="3.24363" ry="3.24898" fill="#E1A103"/>
<ellipse cx="112.091" cy="191.981" rx="3.24363" ry="3.24898" fill="#E1A103"/>
<ellipse cx="60.1968" cy="49.0263" rx="3.24363" ry="3.24898" fill="#E1A103"/>
<ellipse cx="60.1968" cy="152.992" rx="3.24363" ry="3.24898" fill="#E1A103"/>
<ellipse cx="112.091" cy="152.992" rx="3.24363" ry="3.24898" fill="#E1A103"/>
<ellipse cx="60.1968" cy="101.01" rx="3.24363" ry="3.24898" fill="#E1A103"/>
<ellipse cx="60.1968" cy="204.977" rx="3.24363" ry="3.24898" fill="#E1A103"/>
<ellipse cx="163.986" cy="114.005" rx="3.24363" ry="3.24898" fill="#E1A103"/>
<ellipse cx="267.787" cy="114.005" rx="3.24363" ry="3.24898" fill="#E1A103"/>
<ellipse cx="112.091" cy="204.977" rx="3.24363" ry="3.24898" fill="#E1A103"/>
<ellipse cx="60.1968" cy="217.974" rx="3.24363" ry="3.24898" fill="#E1A103"/>
<ellipse cx="60.1968" cy="230.969" rx="3.24363" ry="3.24898" fill="#E1A103"/>
<ellipse cx="163.986" cy="127.002" rx="3.24363" ry="3.24898" fill="#E1A103"/>
<ellipse cx="112.091" cy="139.998" rx="3.24363" ry="3.24898" fill="#E1A103"/>
<ellipse cx="112.091" cy="217.974" rx="3.24363" ry="3.24898" fill="#E1A103"/>
<ellipse cx="73.1655" cy="230.969" rx="3.24363" ry="3.24898" fill="#E1A103"/>
<ellipse cx="125.068" cy="139.998" rx="3.24363" ry="3.24898" fill="#E1A103"/>
<ellipse cx="176.962" cy="101.01" rx="3.24363" ry="3.24898" fill="#E1A103"/>
<ellipse cx="228.861" cy="101.01" rx="3.24363" ry="3.24898" fill="#E1A103"/>
<ellipse cx="86.1421" cy="230.969" rx="3.24363" ry="3.24898" fill="#E1A103"/>
<ellipse cx="138.04" cy="139.998" rx="3.24363" ry="3.24898" fill="#E1A103"/>
<ellipse cx="189.939" cy="101.01" rx="3.24363" ry="3.24898" fill="#E1A103"/>
<ellipse cx="241.83" cy="101.01" rx="3.24363" ry="3.24898" fill="#E1A103"/>
<ellipse cx="99.1186" cy="230.969" rx="3.24363" ry="3.24898" fill="#E1A103"/>
<ellipse cx="151.013" cy="139.998" rx="3.24363" ry="3.24898" fill="#E1A103"/>
<ellipse cx="202.915" cy="101.01" rx="3.24363" ry="3.24898" fill="#E1A103"/>
<ellipse cx="254.814" cy="101.01" rx="3.24363" ry="3.24898" fill="#E1A103"/>
<ellipse cx="112.091" cy="217.974" rx="3.24363" ry="3.24898" fill="#E1A103"/>
<ellipse cx="112.091" cy="230.969" rx="3.24363" ry="3.24898" fill="#E1A103"/>
<ellipse cx="163.986" cy="139.998" rx="3.24363" ry="3.24898" fill="#E1A103"/>
<ellipse cx="215.884" cy="101.01" rx="3.24363" ry="3.24898" fill="#E1A103"/>
<path fill-rule="evenodd" clip-rule="evenodd" d="M302.557 123.3C304.291 127.623 305.246 132.344 305.246 137.288C305.246 158.013 288.473 174.812 267.786 174.812C247.099 174.812 230.326 158.013 230.326 137.288C230.326 132.656 231.163 128.221 232.695 124.125L231.806 123.649C230.203 127.889 229.326 132.486 229.326 137.288C229.326 158.564 246.545 175.812 267.786 175.812C289.027 175.812 306.246 158.564 306.246 137.288C306.246 132.173 305.251 127.291 303.444 122.826L302.557 123.3ZM240.902 128.514C240.004 131.276 239.519 134.225 239.519 137.287C239.519 152.924 252.174 165.6 267.785 165.6C283.396 165.6 296.051 152.924 296.051 137.287C296.051 133.912 295.461 130.675 294.379 127.673L293.488 128.15C294.5 131.007 295.051 134.082 295.051 137.287C295.051 152.373 282.842 164.6 267.785 164.6C252.728 164.6 240.519 152.373 240.519 137.287C240.519 134.395 240.968 131.609 241.799 128.993L240.902 128.514ZM248.547 132.602C248.1 134.242 247.861 135.968 247.861 137.751C247.861 148.517 256.575 157.244 267.323 157.244C278.071 157.244 286.785 148.517 286.785 137.751C286.785 135.81 286.502 133.936 285.975 132.168L285.074 132.65C285.537 134.27 285.785 135.981 285.785 137.751C285.785 147.966 277.518 156.244 267.323 156.244C257.128 156.244 248.861 147.966 248.861 137.751C248.861 136.139 249.067 134.576 249.453 133.087L248.547 132.602Z" fill="#828282"/>
<ellipse cx="267.335" cy="132.108" rx="10.1943" ry="10.2111" fill="#9A9A98"/>
<path fill-rule="evenodd" clip-rule="evenodd" d="M256.191 134.892C257.575 139.571 262.074 143 267.409 143C272.745 143 277.243 139.571 278.627 134.892H256.191Z" fill="#3A3636"/>
<path d="M301.523 110.683H343.227V175.662H301.523V110.683Z" fill="#3F3F3F"/>
<rect x="187.711" y="163.723" width="7.03977" height="47.3451" fill="#292929"/>
</svg>
