<svg width="375" height="377" viewBox="0 0 375 377" fill="none" xmlns="http://www.w3.org/2000/svg">
<rect width="375" height="377" fill="#3F3F3F"/>
<rect x="92" y="82.5166" width="192" height="54.5972" fill="#292929"/>
<path fill-rule="evenodd" clip-rule="evenodd" d="M137.498 96.166H109.289V124.375H137.498V96.166ZM128.534 97.9859L136.839 112.372H128.667C128.668 112.304 128.669 112.237 128.669 112.169C128.669 109.061 127.054 106.33 124.617 104.77L128.534 97.9859ZM119.889 103.389C121.63 103.389 123.252 103.896 124.617 104.77L120.228 112.372H128.667C128.559 117.127 124.67 120.949 119.889 120.949C115.04 120.949 111.109 117.018 111.109 112.169C111.109 107.32 115.04 103.389 119.889 103.389Z" fill="#3A3939"/>
<rect x="92" y="136.204" width="192" height="0.90995" fill="#181818"/>
<rect x="92" y="137.113" width="192" height="54.5972" fill="#292929"/>
<path fill-rule="evenodd" clip-rule="evenodd" d="M137.498 150.763H109.289V178.971H137.498V150.763ZM128.534 152.583L136.839 166.968H128.667C128.668 166.901 128.669 166.834 128.669 166.766C128.669 163.658 127.054 160.926 124.617 159.366L128.534 152.583ZM119.889 157.986C121.63 157.986 123.252 158.492 124.617 159.366L120.228 166.968H128.667C128.559 171.724 124.67 175.546 119.889 175.546C115.04 175.546 111.109 171.615 111.109 166.766C111.109 161.917 115.04 157.986 119.889 157.986Z" fill="#3A3939"/>
<rect x="92" y="190.801" width="192" height="0.90995" fill="#181818"/>
<rect x="92" y="191.71" width="192" height="54.5972" fill="#292929"/>
<path fill-rule="evenodd" clip-rule="evenodd" d="M137.498 205.359H109.289V233.568H137.498V205.359ZM128.534 207.179L136.839 221.565H128.667C128.668 221.498 128.669 221.43 128.669 221.363C128.669 218.254 127.054 215.523 124.617 213.963L128.534 207.179ZM119.889 212.582C121.63 212.582 123.252 213.089 124.617 213.963L120.228 221.565H128.667C128.559 226.321 124.67 230.143 119.889 230.143C115.04 230.143 111.109 226.212 111.109 221.363C111.109 216.513 115.04 212.582 119.889 212.582Z" fill="#3A3939"/>
<rect x="92" y="245.397" width="192" height="0.90995" fill="#181818"/>
<rect x="92" y="246.307" width="192" height="54.5972" fill="#292929"/>
<path fill-rule="evenodd" clip-rule="evenodd" d="M137.498 259.956H109.289V288.165H137.498V259.956ZM128.534 261.776L136.839 276.162H128.667C128.668 276.094 128.669 276.027 128.669 275.959C128.669 272.851 127.054 270.12 124.617 268.56L128.534 261.776ZM119.889 267.179C121.63 267.179 123.252 267.686 124.617 268.56L120.228 276.162H128.667C128.559 280.917 124.67 284.739 119.889 284.739C115.04 284.739 111.109 280.808 111.109 275.959C111.109 271.11 115.04 267.179 119.889 267.179Z" fill="#3A3939"/>
<rect x="92" y="299.994" width="192" height="0.90995" fill="#181818"/>
<rect x="92" y="300.903" width="192" height="54.5972" fill="#292929"/>
<path fill-rule="evenodd" clip-rule="evenodd" d="M137.498 314.553H109.289V342.761H137.498V314.553ZM128.534 316.373L136.839 330.758H128.667C128.668 330.691 128.669 330.624 128.669 330.556C128.669 327.448 127.054 324.717 124.617 323.156L128.534 316.373ZM119.889 321.776C121.63 321.776 123.252 322.282 124.617 323.156L120.228 330.758H128.667C128.559 335.514 124.67 339.336 119.889 339.336C115.04 339.336 111.109 335.405 111.109 330.556C111.109 325.707 115.04 321.776 119.889 321.776Z" fill="#3A3939"/>
<rect x="92" y="354.591" width="192" height="0.90995" fill="#181818"/>
<circle cx="266.71" cy="112.545" r="3.63981" fill="#E1A103"/>
<rect x="92" y="27.9189" width="192" height="54.5972" fill="#3A3939"/>
<line x1="92" y1="82.0156" x2="188" y2="82.0156" stroke="#E1A103"/>
<line x1="100.188" y1="34.4492" x2="110.197" y2="34.4492" stroke="#E1A103" stroke-width="1.5"/>
<line x1="100.188" y1="38.0889" x2="110.197" y2="38.0889" stroke="#E1A103" stroke-width="1.5"/>
<line x1="100.188" y1="41.7285" x2="110.197" y2="41.7285" stroke="#E1A103" stroke-width="1.5"/>
<path d="M126.819 72.8574V62.3274H128.938C129.64 62.3274 130.221 62.4228 130.68 62.6134C131.139 62.7954 131.477 63.0944 131.694 63.5104C131.919 63.9178 132.032 64.4551 132.032 65.1224C132.032 65.5298 131.989 65.9024 131.902 66.2404C131.815 66.5698 131.677 66.8514 131.486 67.0854C131.295 67.3108 131.044 67.4754 130.732 67.5794L132.227 72.8574H130.81L129.432 67.9174H128.288V72.8574H126.819ZM128.288 66.8644H128.847C129.263 66.8644 129.601 66.8124 129.861 66.7084C130.121 66.6044 130.312 66.4268 130.433 66.1754C130.554 65.9241 130.615 65.5731 130.615 65.1224C130.615 64.5071 130.502 64.0651 130.277 63.7964C130.052 63.5191 129.605 63.3804 128.938 63.3804H128.288V66.8644ZM134.535 72.8574V62.3274H138.617V63.4194H136.004V66.9034H138.123V67.9434H136.004V71.8044H138.643V72.8574H134.535ZM140.804 72.8574V62.3274H141.805L144.795 69.3214V62.3274H146.017V72.8574H145.081L142.052 65.6684V72.8574H140.804ZM149.804 72.8574V63.4194H148.023V62.3274H153.002V63.4194H151.273V72.8574H149.804Z" fill="#9A9A98"/>
<path d="M222.819 72.8574V62.3274H224.288V71.8044H226.979V72.8574H222.819ZM228.961 72.8574V62.3274H233.043V63.4194H230.43V66.9034H232.549V67.9434H230.43V71.8044H233.069V72.8574H228.961ZM235.23 72.8574V62.3274H236.231L239.221 69.3214V62.3274H240.443V72.8574H239.507L236.478 65.6684V72.8574H235.23ZM243.073 72.8574V62.3274H245.361C246.141 62.3274 246.756 62.4488 247.207 62.6914C247.666 62.9254 247.991 63.2808 248.182 63.7574C248.381 64.2341 248.481 64.8278 248.481 65.5384V69.4124C248.481 70.1578 248.381 70.7861 248.182 71.2974C247.991 71.8088 247.675 72.1988 247.233 72.4674C246.8 72.7274 246.215 72.8574 245.478 72.8574H243.073ZM244.542 71.8044H245.374C245.911 71.8044 246.293 71.7004 246.518 71.4924C246.743 71.2844 246.878 70.9811 246.921 70.5824C246.973 70.1838 246.999 69.7028 246.999 69.1394V65.7204C246.999 65.1744 246.964 64.7324 246.895 64.3944C246.826 64.0564 246.674 63.8094 246.44 63.6534C246.206 63.4974 245.838 63.4194 245.335 63.4194H244.542V71.8044Z" fill="#9A9A98"/>
<rect x="92" y="17" width="192" height="10.9194" fill="#292929"/>
<rect x="271.262" y="18.8203" width="4.54976" height="7.27962" fill="#E1A103"/>
<path d="M251.721 26.0996L247.603 18.82L255.793 18.82L251.721 26.0996Z" fill="#E1A103"/>
<circle cx="263.069" cy="22.4601" r="3.63981" fill="#E1A103"/>
</svg>
