<svg width="375" height="377" viewBox="0 0 375 377" fill="none" xmlns="http://www.w3.org/2000/svg">
<g clip-path="url(#clip0_404:5644)">
<rect width="375" height="377" fill="#3F3F3F"/>
<path d="M87.2751 162.231L89.7904 163.866L89.8119 163.833L87.2751 162.231ZM293.352 157.732L291.038 159.64L293.778 162.964L295.945 159.241L293.352 157.732ZM347.899 68.2339C347.476 66.632 345.835 65.6765 344.233 66.0997L318.128 72.9959C316.526 73.4191 315.571 75.0608 315.994 76.6627C316.417 78.2646 318.059 79.2201 319.661 78.7969L342.865 72.6669L348.995 95.8708C349.418 97.4727 351.06 98.4283 352.661 98.0051C354.263 97.5819 355.219 95.9402 354.796 94.3383L347.899 68.2339ZM144.272 204.732L142.372 207.053L144.484 208.781L146.404 206.843L144.272 204.732ZM246.772 101.232L249.087 99.3233L246.976 96.7626L244.641 99.1206L246.772 101.232ZM88.9991 159.5L90.899 157.178L88.2733 155.03L86.4623 157.899L88.9991 159.5ZM37.7883 243.866L89.7904 163.866L84.7598 160.596L32.7577 240.596L37.7883 243.866ZM295.945 159.241L347.592 70.5093L342.406 67.491L290.76 156.222L295.945 159.241ZM146.404 206.843L248.904 103.343L244.641 99.1206L142.141 202.621L146.404 206.843ZM244.458 103.14L291.038 159.64L295.667 155.823L249.087 99.3233L244.458 103.14ZM89.8119 163.833L91.5359 161.101L86.4623 157.899L84.7382 160.63L89.8119 163.833ZM87.0992 161.822L142.372 207.053L146.172 202.41L90.899 157.178L87.0992 161.822Z" fill="#E1A103"/>
<rect width="34" height="126" transform="translate(45 111)" fill="#292929"/>
<rect width="6" height="6" transform="translate(49 119)" fill="#3F3F3F"/>
<rect width="6" height="6" transform="translate(59 119)" fill="#3F3F3F"/>
<rect width="6" height="6" transform="translate(69 119)" fill="#3F3F3F"/>
<rect width="6" height="6" transform="translate(49 135)" fill="#3F3F3F"/>
<rect width="6" height="6" transform="translate(59 135)" fill="#3F3F3F"/>
<rect width="6" height="6" transform="translate(69 135)" fill="#3F3F3F"/>
<rect width="6" height="6" transform="translate(49 151)" fill="#3F3F3F"/>
<rect width="6" height="6" transform="translate(59 151)" fill="#3F3F3F"/>
<rect width="6" height="6" transform="translate(69 151)" fill="#3F3F3F"/>
<rect width="6" height="6" transform="translate(49 167)" fill="#3F3F3F"/>
<rect width="6" height="6" transform="translate(59 167)" fill="#3F3F3F"/>
<rect width="6" height="6" transform="translate(69 167)" fill="#3F3F3F"/>
<rect width="6" height="6" transform="translate(49 183)" fill="#3F3F3F"/>
<rect width="6" height="6" transform="translate(59 183)" fill="#3F3F3F"/>
<rect width="6" height="6" transform="translate(69 183)" fill="#E1A103"/>
<rect width="6" height="6" transform="translate(49 199)" fill="#3F3F3F"/>
<rect width="6" height="6" transform="translate(59 199)" fill="#E1A103"/>
<rect width="6" height="6" transform="translate(69 199)" fill="#3F3F3F"/>
<rect width="6" height="6" transform="translate(49 215)" fill="#E1A103"/>
<rect width="6" height="6" transform="translate(59 215)" fill="#3F3F3F"/>
<rect width="6" height="6" transform="translate(69 215)" fill="#3F3F3F"/>
<rect width="44" height="142" transform="translate(286 95)" fill="#292929"/>
<rect width="6" height="6" transform="translate(290 103)" fill="#3F3F3F"/>
<rect width="6" height="6" transform="translate(300 103)" fill="#3F3F3F"/>
<rect width="6" height="6" transform="translate(310 103)" fill="#3F3F3F"/>
<rect width="6" height="6" transform="translate(320 103)" fill="#E1A103"/>
<rect width="6" height="6" transform="translate(290 119)" fill="#3F3F3F"/>
<rect width="6" height="6" transform="translate(300 119)" fill="#3F3F3F"/>
<rect width="6" height="6" transform="translate(310 119)" fill="#E1A103"/>
<rect width="6" height="6" transform="translate(320 119)" fill="#3F3F3F"/>
<rect width="6" height="6" transform="translate(290 135)" fill="#3F3F3F"/>
<rect width="6" height="6" transform="translate(300 135)" fill="#E1A103"/>
<rect width="6" height="6" transform="translate(310 135)" fill="#3F3F3F"/>
<rect width="6" height="6" transform="translate(320 135)" fill="#3F3F3F"/>
<rect width="6" height="6" transform="translate(290 151)" fill="#E1A103"/>
<rect width="6" height="6" transform="translate(300 151)" fill="#3F3F3F"/>
<rect width="6" height="6" transform="translate(310 151)" fill="#3F3F3F"/>
<rect width="6" height="6" transform="translate(320 151)" fill="#3F3F3F"/>
<rect width="6" height="6" transform="translate(290 167)" fill="#3F3F3F"/>
<rect width="6" height="6" transform="translate(300 167)" fill="#3F3F3F"/>
<rect width="6" height="6" transform="translate(310 167)" fill="#3F3F3F"/>
<rect width="6" height="6" transform="translate(320 167)" fill="#3F3F3F"/>
<rect width="6" height="6" transform="translate(290 183)" fill="#3F3F3F"/>
<rect width="6" height="6" transform="translate(300 183)" fill="#3F3F3F"/>
<rect width="6" height="6" transform="translate(310 183)" fill="#3F3F3F"/>
<rect width="6" height="6" transform="translate(320 183)" fill="#3F3F3F"/>
<rect width="6" height="6" transform="translate(290 199)" fill="#3F3F3F"/>
<rect width="6" height="6" transform="translate(300 199)" fill="#3F3F3F"/>
<rect width="6" height="6" transform="translate(310 199)" fill="#3F3F3F"/>
<rect width="6" height="6" transform="translate(320 199)" fill="#3F3F3F"/>
<rect width="6" height="6" transform="translate(290 215)" fill="#3F3F3F"/>
<rect width="6" height="6" transform="translate(300 215)" fill="#3F3F3F"/>
<rect width="6" height="6" transform="translate(310 215)" fill="#3F3F3F"/>
<rect width="6" height="6" transform="translate(320 215)" fill="#3F3F3F"/>
<rect width="44" height="126" transform="translate(116 111)" fill="#292929"/>
<rect width="6" height="6" transform="translate(120 119)" fill="#3F3F3F"/>
<rect width="6" height="6" transform="translate(130 119)" fill="#3F3F3F"/>
<rect width="6" height="6" transform="translate(140 119)" fill="#3F3F3F"/>
<rect width="6" height="6" transform="translate(150 119)" fill="#3F3F3F"/>
<rect width="6" height="6" transform="translate(120 135)" fill="#3F3F3F"/>
<rect width="6" height="6" transform="translate(130 135)" fill="#3F3F3F"/>
<rect width="6" height="6" transform="translate(140 135)" fill="#3F3F3F"/>
<rect width="6" height="6" transform="translate(150 135)" fill="#3F3F3F"/>
<rect width="6" height="6" transform="translate(120 151)" fill="#3F3F3F"/>
<rect width="6" height="6" transform="translate(130 151)" fill="#3F3F3F"/>
<rect width="6" height="6" transform="translate(140 151)" fill="#3F3F3F"/>
<rect width="6" height="6" transform="translate(150 151)" fill="#3F3F3F"/>
<rect width="6" height="6" transform="translate(120 167)" fill="#3F3F3F"/>
<rect width="6" height="6" transform="translate(130 167)" fill="#3F3F3F"/>
<rect width="6" height="6" transform="translate(140 167)" fill="#3F3F3F"/>
<rect width="6" height="6" transform="translate(150 167)" fill="#3F3F3F"/>
<rect width="6" height="6" transform="translate(120 183)" fill="#E1A103"/>
<rect width="6" height="6" transform="translate(130 183)" fill="#3F3F3F"/>
<rect width="6" height="6" transform="translate(140 183)" fill="#3F3F3F"/>
<rect width="6" height="6" transform="translate(150 183)" fill="#3F3F3F"/>
<rect width="6" height="6" transform="translate(120 199)" fill="#3F3F3F"/>
<rect width="6" height="6" transform="translate(130 199)" fill="#3F3F3F"/>
<rect width="6" height="6" transform="translate(140 199)" fill="#E1A103"/>
<rect width="6" height="6" transform="translate(150 199)" fill="#3F3F3F"/>
<rect width="6" height="6" transform="translate(120 215)" fill="#3F3F3F"/>
<rect width="6" height="6" transform="translate(130 215)" fill="#3F3F3F"/>
<rect width="6" height="6" transform="translate(140 215)" fill="#3F3F3F"/>
<rect width="6" height="6" transform="translate(150 215)" fill="#3F3F3F"/>
<rect width="24" height="94" transform="translate(202 143)" fill="#292929"/>
<rect width="6" height="6" transform="translate(206 151)" fill="#3F3F3F"/>
<rect width="6" height="6" transform="translate(216 151)" fill="#3F3F3F"/>
<rect width="6" height="6" transform="translate(206 167)" fill="#3F3F3F"/>
<rect width="6" height="6" transform="translate(216 167)" fill="#3F3F3F"/>
<rect width="6" height="6" transform="translate(206 183)" fill="#3F3F3F"/>
<rect width="6" height="6" transform="translate(216 183)" fill="#3F3F3F"/>
<rect width="6" height="6" transform="translate(206 199)" fill="#3F3F3F"/>
<rect width="6" height="6" transform="translate(216 199)" fill="#3F3F3F"/>
<rect width="6" height="6" transform="translate(206 215)" fill="#3F3F3F"/>
<rect width="6" height="6" transform="translate(216 215)" fill="#3F3F3F"/>
<rect width="6" height="6" transform="translate(12 -0.379883)" fill="#3F3F3F"/>
<line x1="15" y1="259.5" x2="358" y2="259.5" stroke="#292929"/>
<rect x="23" y="290" width="16" height="2" fill="#9A9A98"/>
<rect x="47" y="290" width="16" height="2" fill="#9A9A98"/>
<rect x="71" y="290" width="16" height="2" fill="#9A9A98"/>
<rect x="95" y="290" width="16" height="2" fill="#9A9A98"/>
<rect x="119" y="290" width="16" height="2" fill="#9A9A98"/>
<rect x="143" y="290" width="16" height="2" fill="#9A9A98"/>
<rect x="167" y="290" width="16" height="2" fill="#9A9A98"/>
<rect x="191" y="290" width="16" height="2" fill="#9A9A98"/>
<rect x="215" y="290" width="16" height="2" fill="#9A9A98"/>
<rect x="239" y="290" width="16" height="2" fill="#9A9A98"/>
<rect x="263" y="290" width="16" height="2" fill="#9A9A98"/>
<rect x="287" y="290" width="16" height="2" fill="#9A9A98"/>
<rect x="311" y="290" width="16" height="2" fill="#9A9A98"/>
<rect x="335" y="290" width="16" height="2" fill="#9A9A98"/>
<rect x="167" y="289" width="40" height="4" fill="#9A9A98"/>
<rect x="167" y="279" width="40" height="4" fill="#9A9A98"/>
<rect x="167" y="268" width="40" height="4" fill="#9A9A98"/>
<rect x="167" y="299" width="40" height="4" fill="#9A9A98"/>
<rect x="167" y="309" width="40" height="4" fill="#9A9A98"/>
<line x1="15" y1="320.5" x2="358" y2="320.5" stroke="#292929"/>
</g>
<defs>
<clipPath id="clip0_404:5644">
<rect width="375" height="377" fill="white"/>
</clipPath>
</defs>
</svg>
