<svg width="375" height="377" viewBox="0 0 375 377" fill="none" xmlns="http://www.w3.org/2000/svg">
<rect width="375" height="377" fill="#3F3F3F"/>
<path fill-rule="evenodd" clip-rule="evenodd" d="M181 14H159V92.9816C159 97.9659 158.255 102.922 156.789 107.686L149 133H181H194H226L218.211 107.686C216.745 102.922 216 97.9659 216 92.9816V14H194H181Z" fill="url(#paint0_linear)"/>
<path d="M174 14H202V133H174V14Z" fill="#3F3F3F"/>
<path fill-rule="evenodd" clip-rule="evenodd" d="M194 358L216 358L216 279.018C216 274.034 216.745 269.078 218.211 264.314L226 239L194 239L181 239L149 239L156.789 264.314C158.255 269.078 159 274.034 159 279.018L159 358L181 358L194 358Z" fill="url(#paint1_linear)"/>
<path d="M201 358L173 358L173 239L201 239L201 358Z" fill="#3F3F3F"/>
<path d="M238.91 159.264L248.5 153.729L254.037 163.315L244.447 168.85L238.91 159.264Z" fill="#5E5C5C"/>
<path d="M244.445 204.816L254.035 210.351L248.498 219.937L238.909 214.403L244.445 204.816Z" fill="#5E5C5C"/>
<path d="M246.777 180.243H257.844L257.821 191.319H246.755L246.777 180.243Z" fill="#5E5C5C"/>
<ellipse cx="188.014" cy="186.084" rx="66.014" ry="65.9902" fill="url(#paint2_linear)"/>
<ellipse cx="188.88" cy="185.859" rx="58.8802" ry="58.859" fill="#343232"/>
<path d="M185.212 143.979C186.727 140.306 191.929 140.306 193.445 143.979C194.674 146.959 198.564 147.685 200.787 145.351C203.526 142.474 208.378 144.352 208.464 148.324C208.533 151.546 211.899 153.628 214.814 152.255C218.408 150.561 222.254 154.065 220.898 157.799C219.799 160.828 222.185 163.986 225.399 163.757C229.362 163.476 231.682 168.132 229.069 171.124C226.95 173.552 228.033 177.358 231.113 178.306C234.91 179.475 235.39 184.655 231.873 186.501C229.019 187.999 228.654 191.939 231.184 193.936C234.302 196.397 232.877 201.4 228.93 201.852C225.728 202.218 223.964 205.76 225.602 208.536C227.62 211.957 224.483 216.107 220.64 215.103C217.522 214.288 214.596 216.953 215.12 220.133C215.766 224.053 211.342 226.79 208.121 224.466C205.507 222.58 201.816 224.008 201.155 227.163C200.341 231.052 195.227 232.007 193.063 228.675C191.307 225.972 187.349 225.972 185.593 228.675C183.429 232.007 178.315 231.052 177.501 227.163C176.84 224.008 173.149 222.58 170.536 224.466C167.314 226.79 162.89 224.053 163.536 220.133C164.06 216.953 161.135 214.288 158.016 215.103C154.173 216.107 151.036 211.957 153.055 208.536C154.692 205.76 152.928 202.218 149.726 201.852C145.779 201.4 144.354 196.397 147.473 193.936C150.002 191.939 149.637 187.999 146.784 186.501C143.266 184.655 143.747 179.475 147.543 178.306C150.624 177.358 151.707 173.552 149.587 171.124C146.974 168.132 149.295 163.476 153.257 163.757C156.472 163.986 158.857 160.828 157.758 157.799C156.402 154.065 160.249 150.561 163.842 152.255C166.758 153.628 170.123 151.546 170.193 148.324C170.278 144.352 175.13 142.474 177.869 145.351C180.092 147.685 183.982 146.959 185.212 143.979Z" fill="#9A9A98"/>
<ellipse cx="189.326" cy="185.932" rx="19.3183" ry="19.3113" fill="#343232"/>
<path d="M208.149 185.814C208.149 196.206 199.721 204.631 189.324 204.631C178.927 204.631 170.5 196.206 170.5 185.814C170.5 175.422 178.927 166.997 189.324 166.997C199.721 166.997 208.149 175.422 208.149 185.814Z" stroke="#E1A103" stroke-width="3"/>
<path d="M180.6 181.084V182.004H180.4C179.557 182.02 178.885 182.27 178.385 182.754C177.885 183.238 177.596 183.92 177.518 184.799C177.967 184.283 178.58 184.025 179.357 184.025C180.1 184.025 180.691 184.287 181.133 184.811C181.578 185.334 181.801 186.01 181.801 186.838C181.801 187.717 181.561 188.42 181.08 188.947C180.604 189.475 179.963 189.738 179.158 189.738C178.342 189.738 177.68 189.426 177.172 188.801C176.664 188.172 176.41 187.363 176.41 186.375V185.959C176.41 184.389 176.744 183.189 177.412 182.361C178.084 181.529 179.082 181.104 180.406 181.084H180.6ZM179.176 184.928C178.805 184.928 178.463 185.039 178.15 185.262C177.838 185.484 177.621 185.764 177.5 186.1V186.498C177.5 187.201 177.658 187.768 177.975 188.197C178.291 188.627 178.686 188.842 179.158 188.842C179.646 188.842 180.029 188.662 180.307 188.303C180.588 187.943 180.729 187.473 180.729 186.891C180.729 186.305 180.586 185.832 180.301 185.473C180.02 185.109 179.645 184.928 179.176 184.928ZM187.66 186.756H188.844V187.641H187.66V189.621H186.57V187.641H182.686V187.002L186.506 181.09H187.66V186.756ZM183.916 186.756H186.57V182.572L186.441 182.807L183.916 186.756ZM189.67 186.398C189.67 185.426 189.9 184.645 190.361 184.055C190.822 183.461 191.426 183.164 192.172 183.164C192.914 183.164 193.502 183.418 193.936 183.926V180.621H195.02V189.621H194.023L193.971 188.941C193.537 189.473 192.934 189.738 192.16 189.738C191.426 189.738 190.826 189.438 190.361 188.836C189.9 188.234 189.67 187.449 189.67 186.48V186.398ZM190.754 186.521C190.754 187.24 190.902 187.803 191.199 188.209C191.496 188.615 191.906 188.818 192.43 188.818C193.117 188.818 193.619 188.51 193.936 187.893V184.98C193.611 184.383 193.113 184.084 192.441 184.084C191.91 184.084 191.496 184.289 191.199 184.699C190.902 185.109 190.754 185.717 190.754 186.521ZM196.877 189.621V181.09H199.666C200.592 181.09 201.287 181.281 201.752 181.664C202.221 182.047 202.455 182.613 202.455 183.363C202.455 183.762 202.342 184.115 202.115 184.424C201.889 184.729 201.58 184.965 201.189 185.133C201.65 185.262 202.014 185.508 202.279 185.871C202.549 186.23 202.684 186.66 202.684 187.16C202.684 187.926 202.436 188.527 201.939 188.965C201.443 189.402 200.742 189.621 199.836 189.621H196.877ZM198.002 185.631V188.701H199.859C200.383 188.701 200.795 188.566 201.096 188.297C201.4 188.023 201.553 187.648 201.553 187.172C201.553 186.145 200.994 185.631 199.877 185.631H198.002ZM198.002 184.729H199.701C200.193 184.729 200.586 184.605 200.879 184.359C201.176 184.113 201.324 183.779 201.324 183.357C201.324 182.889 201.188 182.549 200.914 182.338C200.641 182.123 200.225 182.016 199.666 182.016H198.002V184.729Z" fill="white"/>
<defs>
<linearGradient id="paint0_linear" x1="213.308" y1="73.5" x2="123.192" y2="73.5" gradientUnits="userSpaceOnUse">
<stop stop-color="#6F6F6F"/>
<stop offset="1" stop-color="#959595"/>
</linearGradient>
<linearGradient id="paint1_linear" x1="161.692" y1="298.5" x2="251.808" y2="298.5" gradientUnits="userSpaceOnUse">
<stop stop-color="#959595"/>
<stop offset="1" stop-color="#6F6F6F"/>
</linearGradient>
<linearGradient id="paint2_linear" x1="144.573" y1="239.834" x2="247.283" y2="136.022" gradientUnits="userSpaceOnUse">
<stop stop-color="#B3B0B0"/>
<stop offset="1" stop-color="#676464"/>
</linearGradient>
</defs>
</svg>
