<svg width="375" height="378" viewBox="0 0 375 378" fill="none" xmlns="http://www.w3.org/2000/svg">
<rect y="1" width="375" height="377" fill="#3F3F3F"/>
<path fill-rule="evenodd" clip-rule="evenodd" d="M56.7147 85.5254C55.2255 87.2916 52.2909 87.2071 51.1806 85.1813L42.2692 68.922L40.7787 65.8528C40.0548 64.3624 40.6763 62.5675 42.1666 61.8436L51.8982 57.1174C53.3886 56.3935 55.1835 57.015 55.9074 58.5053L60.0279 66.9897C60.6003 68.1682 61.8711 68.839 63.167 68.6466L77.6955 66.4901C77.6995 66.4895 77.7036 66.4895 77.7076 66.4901C77.73 66.4934 77.7509 66.478 77.7542 66.4555L79.4626 54.9711C79.7063 53.3323 81.2324 52.2014 82.8712 52.4451L93.572 54.0366C95.2109 54.2803 96.3419 55.8065 96.0981 57.4453L94.3886 68.9374C94.3863 68.9529 94.397 68.9674 94.4126 68.9697C94.4154 68.9701 94.4181 68.9709 94.4206 68.9722L107.52 75.2274C108.697 75.7894 110.103 75.5266 110.997 74.5772L117.475 67.6994C118.611 66.4933 120.51 66.4365 121.716 67.5725L129.496 74.9007C130.702 76.0367 130.759 77.9354 129.623 79.1414L121.61 87.6485C121.61 87.6491 121.609 87.6491 121.608 87.6486C121.607 87.6476 121.606 87.6489 121.606 87.6501L129.145 101.516C129.145 101.517 129.146 101.518 129.146 101.519C129.147 101.526 129.154 101.531 129.161 101.53L140.645 99.595C142.279 99.3198 143.827 100.421 144.102 102.055L145.747 111.822C146.023 113.456 144.921 115.004 143.287 115.279L133.436 116.938C132.449 117.105 131.676 117.878 131.509 118.864L129.164 132.74C129.164 132.742 129.167 132.744 129.169 132.741C129.169 132.74 129.171 132.74 129.172 132.74L139.433 138.321C140.889 139.112 141.427 140.934 140.636 142.389L135.904 151.091C135.112 152.546 133.291 153.085 131.835 152.293L121.817 146.845C121.697 146.78 121.547 146.824 121.482 146.944C121.469 146.967 121.453 146.988 121.434 147.006L109.496 158.194C109.496 158.194 109.496 158.194 109.495 158.194C109.494 158.195 109.493 158.197 109.494 158.199L114.532 168.698C115.248 170.191 114.618 171.983 113.125 172.7L104.62 176.781C103.183 177.47 101.458 176.916 100.692 175.518L95.0203 165.17C94.6039 164.41 94.5363 163.508 94.8348 162.694L97.7319 154.801C97.9565 154.188 98.3693 153.657 98.9415 153.344C100.563 152.458 102.367 151.895 104.256 151.717L104.994 151.647C112.2 150.964 117.936 145.313 118.724 138.118L119.144 134.293C119.183 133.935 119.285 133.588 119.444 133.265L119.673 132.803C120.043 132.056 119.964 131.166 119.469 130.496C118.945 129.785 118.89 128.832 119.331 128.066L119.601 127.596C120.114 126.705 120.144 125.616 119.68 124.698L119.304 123.953C118.961 123.273 118.791 122.517 118.812 121.755L118.924 117.643C118.96 116.34 120.045 115.312 121.349 115.348C123.291 115.4 124.462 113.216 123.343 111.628L117.083 102.742C116.355 101.709 115.889 100.515 115.724 99.2617L115.156 94.9456C114.825 92.4284 114.138 89.9461 112.586 87.937C111.221 86.1704 109.103 83.8868 106.011 81.6451C105.687 81.4097 105.373 81.1809 105.068 80.9586C99.3349 76.7789 96.7159 74.8694 82.8777 73.6082C73.215 72.7275 63.2027 77.8308 56.7147 85.5254ZM95.373 155.467C94.4855 157.885 91.1639 158.134 89.9259 155.875L57.4793 96.6738C57.0356 95.8642 56.9799 94.8911 57.3911 94.0646C62.2882 84.2242 73.5667 76.7858 84.3531 77.7689C96.606 78.8857 98.925 80.5764 104.001 84.2773C104.271 84.4742 104.549 84.6767 104.837 84.8852C107.574 86.8701 109.449 88.892 110.658 90.4563C112.032 92.2352 112.64 94.4331 112.934 96.662L113.437 100.484C113.583 101.593 113.996 102.65 114.64 103.565L120.183 111.433C121.174 112.839 120.137 114.774 118.417 114.727C117.263 114.695 116.302 115.605 116.27 116.76L116.171 120.4C116.153 121.075 116.302 121.744 116.607 122.346L116.94 123.006C117.35 123.818 117.324 124.783 116.87 125.572L116.63 125.988C116.24 126.666 116.288 127.51 116.753 128.139C117.191 128.733 117.261 129.521 116.933 130.183L116.731 130.592C116.589 130.877 116.499 131.185 116.465 131.502L115.412 141.106C115.117 143.795 112.846 145.83 110.142 145.83L103.225 146.723C101.611 146.932 100.072 147.45 98.6813 148.226C98.1241 148.537 97.7243 149.06 97.5044 149.659L95.373 155.467Z" fill="#292929"/>
<path d="M12.5 88.8135H29.4359L38.6331 94.5471H83.6543" stroke="#373737" stroke-width="5"/>
<path d="M29 141.001H35.2612L44.426 136.002H88" stroke="#373737" stroke-width="5"/>
<path d="M45.5 123.678H52.1911H92.8302" stroke="#373737" stroke-width="5"/>
<path d="M29.4453 113.928H36.4728L45.1803 102.001H82.2228" stroke="#373737" stroke-width="5"/>
<mask id="path-7-inside-1" fill="white">
<ellipse cx="7.61952" cy="88.8133" rx="5.61952" ry="5.73421"/>
</mask>
<ellipse cx="7.61952" cy="88.8133" rx="5.61952" ry="5.73421" fill="#3F3F3F"/>
<path d="M3.23904 88.8133C3.23904 86.6488 5.01075 84.5475 7.61952 84.5475V104.548C16.4354 104.548 23.239 97.3116 23.239 88.8133H3.23904ZM7.61952 84.5475C10.2283 84.5475 12 86.6488 12 88.8133H-8C-8 97.3116 -1.1964 104.548 7.61952 104.548V84.5475ZM12 88.8133C12 90.9778 10.2283 93.0791 7.61952 93.0791V73.0791C-1.1964 73.0791 -8 80.315 -8 88.8133H12ZM7.61952 93.0791C5.01075 93.0791 3.23904 90.9778 3.23904 88.8133H23.239C23.239 80.315 16.4354 73.0791 7.61952 73.0791V93.0791Z" fill="#373737" mask="url(#path-7-inside-1)"/>
<circle cx="24.5922" cy="141.224" r="5" fill="#3F3F3F" stroke="#373737" stroke-width="1.23904"/>
<mask id="path-10-inside-2" fill="white">
<ellipse cx="40.4203" cy="123.678" rx="5.61952" ry="5.73421"/>
</mask>
<ellipse cx="40.4203" cy="123.678" rx="5.61952" ry="5.73421" fill="#3F3F3F"/>
<path d="M36.0398 123.678C36.0398 121.513 37.8115 119.412 40.4203 119.412V139.412C49.2362 139.412 56.0398 132.176 56.0398 123.678H36.0398ZM40.4203 119.412C43.0291 119.412 44.8008 121.513 44.8008 123.678H24.8008C24.8008 132.176 31.6044 139.412 40.4203 139.412V119.412ZM44.8008 123.678C44.8008 125.842 43.0291 127.943 40.4203 127.943V107.943C31.6044 107.943 24.8008 115.179 24.8008 123.678H44.8008ZM40.4203 127.943C37.8115 127.943 36.0398 125.842 36.0398 123.678H56.0398C56.0398 115.179 49.2362 107.943 40.4203 107.943V127.943Z" fill="#373737" mask="url(#path-10-inside-2)"/>
<mask id="path-12-inside-3" fill="white">
<ellipse cx="24.5" cy="113.502" rx="5.5" ry="5.5"/>
</mask>
<ellipse cx="24.5" cy="113.502" rx="5.5" ry="5.5" fill="#3F3F3F"/>
<path d="M20 113.502C20 111.017 22.0147 109.002 24.5 109.002V129.002C33.0604 129.002 40 122.062 40 113.502H20ZM24.5 109.002C26.9853 109.002 29 111.017 29 113.502H9C9 122.062 15.9396 129.002 24.5 129.002V109.002ZM29 113.502C29 115.987 26.9853 118.002 24.5 118.002V98.002C15.9396 98.002 9 104.942 9 113.502H29ZM24.5 118.002C22.0147 118.002 20 115.987 20 113.502H40C40 104.942 33.0604 98.002 24.5 98.002V118.002Z" fill="#373737" mask="url(#path-12-inside-3)"/>
<ellipse cx="24.3987" cy="141.346" rx="1.344" ry="1.34427" fill="#E1A103"/>
<ellipse cx="40.5315" cy="123.868" rx="1.344" ry="1.34427" fill="#E1A103"/>
<ellipse cx="24.344" cy="113.348" rx="1.344" ry="1.34427" fill="#E1A103"/>
<ellipse cx="7.81666" cy="88.9136" rx="1.344" ry="1.34427" fill="#E1A103"/>
<path fill-rule="evenodd" clip-rule="evenodd" d="M144.64 33C144.64 30.2386 146.878 28 149.64 28H217.999C220.76 28 222.999 30.2386 222.999 33V70.9756C222.999 73.737 220.761 75.9755 217.999 75.9755H152L138 89.5635L144.64 60.3465V33ZM183.885 56.1098V60.5738H187.305V57.0818C188.577 56.0018 189.729 54.9098 190.761 53.8058C191.793 52.7018 192.609 51.5018 193.209 50.2058C193.809 48.9098 194.109 47.4578 194.109 45.8498C194.109 43.4978 193.473 41.6858 192.201 40.4138C190.929 39.1178 189.153 38.4698 186.873 38.4698C184.689 38.4698 182.997 39.0818 181.797 40.3058C180.597 41.5058 179.997 43.0658 179.997 44.9858C179.997 45.3458 180.033 45.7298 180.105 46.1378C180.177 46.5218 180.273 46.8938 180.393 47.2538L183.993 46.5698C183.921 46.2338 183.861 45.9338 183.813 45.6698C183.765 45.3818 183.741 45.0818 183.741 44.7698C183.741 43.9058 184.017 43.1978 184.569 42.6458C185.145 42.0938 185.913 41.8178 186.873 41.8178C188.001 41.8178 188.853 42.1898 189.429 42.9338C190.029 43.6778 190.329 44.6138 190.329 45.7418C190.329 47.1338 190.041 48.4178 189.465 49.5938C188.889 50.7698 188.109 51.8858 187.125 52.9418C186.165 53.9978 185.085 55.0538 183.885 56.1098ZM183.705 63.9218V67.8818H187.557V63.9218H183.705Z" fill="#9A9A98"/>
<path fill-rule="evenodd" clip-rule="evenodd" d="M344.717 259.001C344.717 256.24 342.478 254.001 339.717 254.001H236.992C234.231 254.001 231.992 256.24 231.992 259.001V324.588C231.992 327.349 234.231 329.588 236.992 329.588H334.134L354.27 350.993L344.717 304.953V259.001ZM284.761 275.997L278.569 305.157H282.385L283.789 297.813H289.729L291.061 305.157H294.913L288.685 275.997H284.761ZM289.189 294.897H284.329L286.741 281.757L289.189 294.897Z" fill="#9A9A98"/>
<line y1="-0.5" x2="23.2079" y2="-0.5" transform="matrix(0.715758 -0.698348 0.715758 0.698348 103.062 265.311)" stroke="#E1A103"/>
<line y1="-0.5" x2="23.2079" y2="-0.5" transform="matrix(0.715758 -0.698348 0.715758 0.698348 80.1445 287.63)" stroke="#E1A103"/>
<line y1="-0.5" x2="23.2079" y2="-0.5" transform="matrix(0.715758 -0.698348 0.715758 0.698348 197.059 173.47)" stroke="#E1A103"/>
<line y1="-0.5" x2="23.2079" y2="-0.5" transform="matrix(0.715758 -0.698348 0.715758 0.698348 149.07 220.29)" stroke="#E1A103"/>
<line y1="-0.5" x2="23.2079" y2="-0.5" transform="matrix(0.715758 -0.698348 0.715758 0.698348 244.395 127.363)" stroke="#E1A103"/>
<line y1="-0.5" x2="23.2079" y2="-0.5" transform="matrix(0.715758 -0.698348 0.715758 0.698348 127.055 241.899)" stroke="#E1A103"/>
<line y1="-0.5" x2="23.2079" y2="-0.5" transform="matrix(0.715758 -0.698348 0.715758 0.698348 56.8047 309.834)" stroke="url(#paint0_linear)"/>
<line y1="-0.5" x2="23.2079" y2="-0.5" transform="matrix(-0.715758 0.698348 -0.715758 -0.698348 306.52 65.7832)" stroke="url(#paint1_linear)"/>
<line y1="-0.5" x2="23.2079" y2="-0.5" transform="matrix(0.715758 -0.698348 0.715758 0.698348 33.6406 332.037)" stroke="url(#paint2_linear)"/>
<line y1="-0.5" x2="23.2079" y2="-0.5" transform="matrix(-0.715758 0.698348 -0.715758 -0.698348 329.684 43.5781)" stroke="url(#paint3_linear)"/>
<line y1="-0.5" x2="23.2079" y2="-0.5" transform="matrix(0.715758 -0.698348 0.715758 0.698348 221.055 150.06)" stroke="#E1A103"/>
<line y1="-0.5" x2="23.2079" y2="-0.5" transform="matrix(0.715758 -0.698348 0.715758 0.698348 173.066 196.88)" stroke="#E1A103"/>
<line y1="-0.5" x2="23.2079" y2="-0.5" transform="matrix(0.715758 -0.698348 0.715758 0.698348 268.141 104.194)" stroke="#E1A103"/>
<line y1="-0.5" x2="235.002" y2="-0.5" transform="matrix(-0.715758 0.698348 -0.715758 -0.698348 173.152 164.652)" stroke="url(#paint4_linear)"/>
<line y1="-0.5" x2="235.002" y2="-0.5" transform="matrix(-0.715758 0.698348 -0.715758 -0.698348 197.887 206.162)" stroke="url(#paint5_linear)"/>
<line x1="197.647" y1="207.014" x2="366.536" y2="42.6415" stroke="url(#paint6_linear)"/>
<line y1="-0.5" x2="235.002" y2="-0.5" transform="matrix(0.715758 -0.698348 0.715758 0.698348 173.945 165.229)" stroke="url(#paint7_linear)"/>
<path d="M167.48 215.874L168.487 190.595L189.415 203.264L167.48 215.874Z" fill="url(#paint8_linear)"/>
<path d="M174.253 222.539L182.557 199.147L198.586 217.627L174.253 222.539Z" fill="url(#paint9_linear)"/>
<path d="M168.051 211.357C168.832 210.576 170.098 210.576 170.879 211.357L178.726 219.204C179.507 219.985 179.507 221.251 178.726 222.032L157.629 243.128C156.848 243.909 155.581 243.909 154.8 243.128L146.953 235.281C146.172 234.5 146.172 233.234 146.953 232.453L168.051 211.357Z" fill="#292929"/>
<defs>
<linearGradient id="paint0_linear" x1="25.1561" y1="-2.52926" x2="1.10853" y2="-2.27331" gradientUnits="userSpaceOnUse">
<stop stop-color="#E1A103"/>
<stop offset="1" stop-color="#3F3F3F"/>
</linearGradient>
<linearGradient id="paint1_linear" x1="16.0954" y1="-1.39841" x2="-1.12201" y2="-0.875311" gradientUnits="userSpaceOnUse">
<stop stop-color="#E1A103"/>
<stop offset="1" stop-color="#3F3F3F"/>
</linearGradient>
<linearGradient id="paint2_linear" x1="162.628" y1="-5.86056" x2="-1.12768" y2="-1.0703" gradientUnits="userSpaceOnUse">
<stop stop-color="#E1A103"/>
<stop offset="1" stop-color="#3F3F3F"/>
</linearGradient>
<linearGradient id="paint3_linear" x1="162.628" y1="-5.86056" x2="-1.12768" y2="-1.0703" gradientUnits="userSpaceOnUse">
<stop stop-color="#E1A103"/>
<stop offset="1" stop-color="#3F3F3F"/>
</linearGradient>
<linearGradient id="paint4_linear" x1="110.67" y1="0.000781915" x2="242.711" y2="-1.01303" gradientUnits="userSpaceOnUse">
<stop stop-color="#292929"/>
<stop offset="1" stop-color="#3F3F3F"/>
</linearGradient>
<linearGradient id="paint5_linear" x1="110.67" y1="0.000781915" x2="242.711" y2="-1.01303" gradientUnits="userSpaceOnUse">
<stop stop-color="#292929"/>
<stop offset="1" stop-color="#3F3F3F"/>
</linearGradient>
<linearGradient id="paint6_linear" x1="277.531" y1="129.965" x2="371.714" y2="36.8783" gradientUnits="userSpaceOnUse">
<stop stop-color="#292929"/>
<stop offset="1" stop-color="#3F3F3F"/>
</linearGradient>
<linearGradient id="paint7_linear" x1="110.67" y1="0.000781915" x2="242.711" y2="-1.01303" gradientUnits="userSpaceOnUse">
<stop stop-color="#292929"/>
<stop offset="1" stop-color="#3F3F3F"/>
</linearGradient>
<linearGradient id="paint8_linear" x1="159.754" y1="226.405" x2="179.701" y2="197.459" gradientUnits="userSpaceOnUse">
<stop offset="0.276042" stop-color="#E1A103"/>
<stop offset="1" stop-color="#3F3F3F"/>
</linearGradient>
<linearGradient id="paint9_linear" x1="163.911" y1="229.98" x2="191.063" y2="209.04" gradientUnits="userSpaceOnUse">
<stop offset="0.276042" stop-color="#E1A103"/>
<stop offset="1" stop-color="#3F3F3F"/>
</linearGradient>
</defs>
</svg>
