<svg width="141" height="148" viewBox="0 0 141 148" fill="none" xmlns="http://www.w3.org/2000/svg">
<path d="M69.9671 0.1875L0.464844 24.636L11.4481 115.654L70.0406 147.843L128.936 115.218L139.915 24.2031L69.9671 0.1875Z" fill="#B3B3B3"/>
<path d="M132.982 29.4632L69.8047 7.92871V140.152L122.75 110.863L132.982 29.4632H132.982Z" fill="#A6120D"/>
<path d="M8.26562 29.8514L17.6774 111.252L69.8053 140.152V7.92676L8.26617 29.8509L8.26562 29.8514Z" fill="#DD1B16"/>
<path d="M87.1946 78.3167L69.8038 86.4455H51.4743L42.8581 107.987L26.832 108.283L69.8038 12.7295L87.1946 78.3172V78.3167ZM85.5134 74.2243L69.9195 43.3667L57.1279 73.6932H69.8032L85.5134 74.2249V74.2243Z" fill="#F2F2F2"/>
<path d="M69.8047 12.7295L69.9198 43.3673L84.4336 73.7173H69.8376L69.8047 86.4264L89.988 86.4455L99.4212 108.287L114.756 108.571L69.8047 12.7295Z" fill="#B3B3B3"/>
</svg>
