<svg width="148" height="148" viewBox="0 0 148 148" fill="none" xmlns="http://www.w3.org/2000/svg">
<path d="M73.7836 0.1875L4.28125 24.636L15.2645 115.654L73.857 147.843L132.752 115.218L143.731 24.2031L73.7836 0.1875Z" fill="#B3B3B3"/>
<path d="M136.799 29.4632L73.6211 7.92871V140.152L126.567 110.863L136.798 29.4632H136.799Z" fill="#A6120D"/>
<path d="M12.082 29.8514L21.4938 111.252L73.6217 140.152V7.92676L12.0826 29.8509L12.082 29.8514Z" fill="#DD1B16"/>
<path d="M91.011 78.3167L73.6202 86.4455H55.2907L46.6745 107.987L30.6484 108.283L73.6202 12.7295L91.011 78.3172V78.3167ZM89.3298 74.2243L73.7359 43.3667L60.9443 73.6932H73.6196L89.3298 74.2249V74.2243Z" fill="#F2F2F2"/>
<path d="M73.6211 12.7295L73.7362 43.3673L88.25 73.7173H73.654L73.6211 86.4264L93.8044 86.4455L103.238 108.287L118.572 108.571L73.6211 12.7295Z" fill="#B3B3B3"/>
</svg>
