<svg width="99" height="148" viewBox="0 0 99 148" fill="none" xmlns="http://www.w3.org/2000/svg">
<g clip-path="url(#clip0)">
<path d="M24.6009 148C38.1742 148 49.1901 136.95 49.1901 123.334V98.667H24.6009C11.0277 98.667 0.0117188 109.718 0.0117188 123.334C0.0117188 136.95 11.0277 148 24.6009 148Z" fill="#0ACF83"/>
<path d="M0.0117188 73.9997C0.0117188 60.3837 11.0277 49.333 24.6009 49.333H49.1901V98.6663H24.6009C11.0277 98.6663 0.0117188 87.6157 0.0117188 73.9997Z" fill="#A259FF"/>
<path d="M0.0117188 24.6667C0.0117188 11.0507 11.0277 0 24.6009 0H49.1901V49.3333H24.6009C11.0277 49.3333 0.0117188 38.2827 0.0117188 24.6667Z" fill="#F24E1E"/>
<path d="M49.1875 0H73.7767C87.3499 0 98.3659 11.0507 98.3659 24.6667C98.3659 38.2827 87.3499 49.3333 73.7767 49.3333H49.1875V0Z" fill="#FF7262"/>
<path d="M98.3659 73.9997C98.3659 87.6157 87.3499 98.6663 73.7767 98.6663C60.2035 98.6663 49.1875 87.6157 49.1875 73.9997C49.1875 60.3837 60.2035 49.333 73.7767 49.333C87.3499 49.333 98.3659 60.3837 98.3659 73.9997Z" fill="#1ABCFE"/>
</g>
<defs>
<clipPath id="clip0">
<rect width="98.3765" height="148" fill="white"/>
</clipPath>
</defs>
</svg>
