<svg width="148" height="148" viewBox="0 0 148 148" fill="none" xmlns="http://www.w3.org/2000/svg">
<g clip-path="url(#clip0)">
<path d="M49.5892 148C63.1624 148 74.1784 136.95 74.1784 123.334V98.667H49.5892C36.016 98.667 25 109.718 25 123.334C25 136.95 36.016 148 49.5892 148Z" fill="#0ACF83"/>
<path d="M25 73.9997C25 60.3837 36.016 49.333 49.5892 49.333H74.1784V98.6663H49.5892C36.016 98.6663 25 87.6157 25 73.9997Z" fill="#A259FF"/>
<path d="M25 24.6667C25 11.0507 36.016 0 49.5892 0H74.1784V49.3333H49.5892C36.016 49.3333 25 38.2827 25 24.6667Z" fill="#F24E1E"/>
<path d="M74.1758 0H98.765C112.338 0 123.354 11.0507 123.354 24.6667C123.354 38.2827 112.338 49.3333 98.765 49.3333H74.1758V0Z" fill="#FF7262"/>
<path d="M123.354 73.9997C123.354 87.6157 112.338 98.6663 98.765 98.6663C85.1917 98.6663 74.1758 87.6157 74.1758 73.9997C74.1758 60.3837 85.1917 49.333 98.765 49.333C112.338 49.333 123.354 60.3837 123.354 73.9997Z" fill="#1ABCFE"/>
</g>
<defs>
<clipPath id="clip0">
<rect width="148" height="148" fill="white"/>
</clipPath>
</defs>
</svg>
