<svg width="148" height="148" viewBox="0 0 148 148" fill="none" xmlns="http://www.w3.org/2000/svg">
<path d="M144.226 67.4995L80.4981 3.77394C76.8305 0.104 70.8781 0.104 67.2047 3.77394L53.9726 17.0084L70.759 33.7948C74.6614 32.4778 79.1338 33.3612 82.2429 36.4704C85.3683 39.5992 86.2447 44.1097 84.8954 48.0248L101.074 64.2042C104.988 62.8548 109.505 63.7267 112.629 66.8578C117 71.2249 117 78.3047 112.629 82.6741C108.259 87.0447 101.181 87.0447 96.8082 82.6741C93.5221 79.3857 92.7093 74.5584 94.3743 70.5092L79.2875 55.4225L79.2852 95.1293C80.3513 95.6553 81.3561 96.3583 82.2441 97.2429C86.6124 101.61 86.6124 108.687 82.2441 113.064C77.8746 117.431 70.7926 117.431 66.4277 113.064C62.0594 108.689 62.0594 101.611 66.4277 97.2429C67.5077 96.1641 68.7564 95.3489 70.0896 94.8032V54.7287C68.7564 54.183 67.51 53.3736 66.4277 52.2879C63.1185 48.981 62.3219 44.1248 64.0193 40.0594L47.4698 23.51L3.77285 67.2047C0.101758 70.8781 0.101758 76.8304 3.77285 80.5015L67.5019 144.227C71.1718 147.897 77.1219 147.897 80.7976 144.227L144.227 80.7975C147.897 77.1253 147.897 71.1694 144.226 67.4995V67.4995Z" fill="#F34F29"/>
</svg>
