<svg width="148" height="148" viewBox="0 0 148 148" fill="none" xmlns="http://www.w3.org/2000/svg">
<path d="M73.2941 14.0009C68.4124 14.024 63.7527 14.4391 59.6504 15.1653C47.5676 17.2997 45.3753 21.7675 45.3753 30.008V40.8895H73.9266V44.5167H34.6592C26.3619 44.5167 19.0961 49.5036 16.8229 58.9941C14.2005 69.8686 14.0849 76.6558 16.8229 88.0113C18.8521 96.4647 23.6991 102.486 31.9975 102.486H41.8152V89.4416C41.8152 80.017 49.9679 71.7047 59.6515 71.7047H88.1704C96.1092 71.7047 102.445 65.1673 102.445 57.1961V30.0092C102.445 22.2704 95.9173 16.458 88.1704 15.1664C83.2633 14.3501 78.1746 13.979 73.2941 14.0009V14.0009ZM57.8536 22.7526C60.802 22.7526 63.2116 25.2004 63.2116 28.2112C63.2116 31.2094 60.8031 33.634 57.8536 33.634C54.8936 33.634 52.4967 31.2094 52.4967 28.2112C52.4955 25.2004 54.8936 22.7526 57.8536 22.7526V22.7526Z" fill="#4584B6"/>
<path d="M106.009 44.5168V57.1962C106.009 67.0243 97.6749 75.2973 88.1729 75.2973H59.654C51.8423 75.2973 45.3789 81.9839 45.3789 89.8071V116.996C45.3789 124.733 52.106 129.285 59.654 131.504C68.6912 134.16 77.3585 134.641 88.1729 131.504C95.3601 129.421 102.448 125.233 102.448 116.996V106.114H73.9302V102.485H116.725C125.023 102.485 128.117 96.6983 131.003 88.0103C133.983 79.0667 133.855 70.4653 131.003 58.993C128.951 50.7316 125.035 44.5156 116.725 44.5156H106.009V44.5168ZM89.9685 113.368C92.9297 113.368 95.3266 115.793 95.3266 118.793C95.3266 121.802 92.9285 124.249 89.9685 124.249C87.0201 124.249 84.6116 121.802 84.6116 118.793C84.6116 115.793 87.0201 113.368 89.9685 113.368Z" fill="#FFDE57"/>
</svg>
