<svg width="148" height="148" viewBox="0 0 148 148" fill="none" xmlns="http://www.w3.org/2000/svg">
<path d="M74.0016 94.4652C82.4422 102.675 90.7672 107.531 97.4735 107.531C99.6703 107.531 101.752 107.068 103.486 106.028C109.498 102.559 111.695 93.8871 109.614 81.5152C109.267 79.3184 108.805 77.1215 108.227 74.809C110.539 74.1152 112.62 73.4215 114.702 72.7277C126.38 68.2184 132.855 61.9746 132.855 55.1527C132.855 48.2152 126.38 41.9715 114.702 37.5777C112.62 36.7684 110.539 36.0746 108.227 35.4965C108.805 33.184 109.267 30.9871 109.614 28.7902C111.58 16.1871 109.383 7.39961 103.37 3.93086C101.636 2.89023 99.5547 2.42773 97.3578 2.42773C90.7672 2.42773 82.3266 7.28398 73.8859 15.4934C65.5609 7.28398 57.2359 2.42773 50.5297 2.42773C48.3328 2.42773 46.2516 2.89023 44.5172 3.93086C38.5047 7.39961 36.3078 16.0715 38.3891 28.4434C38.7359 30.6402 39.1984 32.8371 39.7766 35.1496C37.4641 35.8434 35.3828 36.5371 33.3016 37.2309C21.6234 41.7402 15.1484 47.984 15.1484 54.8059C15.1484 61.7434 21.6234 67.9871 33.3016 72.3809C35.3828 73.1902 37.4641 73.884 39.7766 74.4621C39.1984 76.7746 38.7359 78.9715 38.3891 81.1684C36.4234 93.5402 38.6203 102.328 44.5172 105.681C46.2516 106.721 48.3328 107.184 50.5297 107.184C57.2359 107.415 65.5609 102.559 74.0016 94.4652V94.4652ZM67.5266 78.8559C69.6078 78.9715 71.8047 78.9715 74.0016 78.9715C76.1984 78.9715 78.3953 78.9715 80.4766 78.8559C78.3953 81.6309 76.1984 84.1746 74.0016 86.6027C71.8047 84.1746 69.6078 81.6309 67.5266 78.8559V78.8559ZM53.1891 66.9465C54.3453 68.9121 55.3859 70.7621 56.6578 72.6121C53.0734 72.1496 49.7203 71.5715 46.4828 70.8777C47.5234 67.7559 48.6797 64.5184 50.0672 61.2809C50.9922 63.1309 52.0328 65.0965 53.1891 66.9465V66.9465ZM46.4828 39.0809C49.7203 38.3871 53.0734 37.809 56.6578 37.3465C55.5016 39.1965 54.3453 41.0465 53.1891 43.0121C52.0328 44.9777 50.9922 46.8277 50.0672 48.7934C48.5641 45.4402 47.4078 42.2027 46.4828 39.0809V39.0809ZM52.8422 54.9215C54.3453 51.7996 55.9641 48.6777 57.8141 45.5559C59.5484 42.5496 61.5141 39.5434 63.4797 36.5371C66.9484 36.3059 70.4172 36.1902 74.0016 36.1902C77.7016 36.1902 81.1703 36.3059 84.5234 36.5371C86.6047 39.5434 88.4547 42.5496 90.1891 45.5559C92.0391 48.6777 93.6578 51.7996 95.161 54.9215C93.6578 58.0434 92.0391 61.1652 90.1891 64.2871C88.4547 67.2934 86.4891 70.2996 84.5234 73.3059C81.0547 73.5371 77.5859 73.6527 74.0016 73.6527C70.3016 73.6527 66.8328 73.5371 63.4797 73.3059C61.3984 70.2996 59.5484 67.2934 57.8141 64.2871C55.9641 61.1652 54.3453 58.0434 52.8422 54.9215V54.9215ZM98.0516 48.6777L94.9297 42.8965C93.7734 40.9309 92.7328 39.0809 91.4609 37.2309C95.0453 37.6934 98.3984 38.2715 101.636 38.9652C100.595 42.2027 99.4391 45.4402 98.0516 48.6777ZM98.0516 61.1652C99.4391 64.4027 100.595 67.6402 101.636 70.7621C98.3984 71.4559 95.0453 72.034 91.4609 72.4965C92.6172 70.6465 93.7734 68.7965 94.9297 66.8309C95.9703 65.0965 97.011 63.1309 98.0516 61.1652ZM100.711 101.287C99.7859 101.865 98.6297 102.096 97.3578 102.096C91.6922 102.096 84.6391 97.4715 77.7016 90.534C81.0547 86.9496 84.2922 82.9027 87.5297 78.3934C92.9641 77.9309 98.1672 77.1215 103.023 75.9652C103.602 78.0465 103.948 80.1277 104.295 82.209C105.914 92.0371 104.642 99.0902 100.711 101.287V101.287ZM106.723 40.3527C119.673 44.0527 127.42 49.7184 127.42 54.9215C127.42 59.4309 122.102 63.9402 112.736 67.5246C110.886 68.2184 108.805 68.9121 106.723 69.4902C105.22 64.7496 103.37 59.8934 101.058 54.9215C103.37 49.9496 105.336 45.0934 106.723 40.3527ZM97.4735 7.74648C98.7453 7.74648 99.7859 7.97773 100.827 8.55586C104.642 10.7527 106.03 17.6902 104.411 27.634C104.064 29.5996 103.602 31.6809 103.139 33.8777C98.2828 32.8371 93.0797 32.0277 87.6453 31.4496C84.5234 26.9402 81.1703 22.8934 77.8172 19.309C84.7547 12.4871 91.8078 7.74648 97.4735 7.74648V7.74648ZM80.4766 30.9871C78.3953 30.8715 76.1984 30.8715 74.0016 30.8715C71.8047 30.8715 69.6078 30.8715 67.5266 30.9871C69.6078 28.2121 71.8047 25.6684 74.0016 23.2402C76.1984 25.6684 78.3953 28.3277 80.4766 30.9871ZM47.2922 8.55586C48.2172 7.97773 49.3734 7.74648 50.6453 7.74648C56.3109 7.74648 63.3641 12.3715 70.3016 19.309C66.9484 22.8934 63.7109 26.9402 60.4734 31.4496C55.0391 31.9121 49.8359 32.7215 44.9797 33.8777C44.4016 31.7965 44.0547 29.7152 43.7078 27.634C42.0891 17.8059 43.3609 10.8684 47.2922 8.55586V8.55586ZM41.2797 69.4902C28.3297 65.7902 20.5828 60.1246 20.5828 54.9215C20.5828 50.4121 25.9016 45.9027 35.2672 42.3184C37.1172 41.6246 39.1984 40.9309 41.2797 40.3527C42.7828 45.0934 44.6328 49.9496 46.9453 54.9215C44.6328 59.8934 42.6672 64.8652 41.2797 69.4902ZM43.7078 82.209C44.0547 80.2434 44.5172 78.1621 44.9797 75.9652C49.8359 77.0059 55.0391 77.8152 60.4734 78.3934C63.5953 82.9027 66.9484 86.9496 70.3016 90.534C63.3641 97.3559 56.3109 102.096 50.6453 102.096C49.3734 102.096 48.3328 101.865 47.2922 101.287C43.3609 99.0902 42.0891 92.0371 43.7078 82.209V82.209ZM38.8516 129.846C41.3953 126.725 41.5109 123.256 40.1234 119.787C38.7359 116.318 35.8453 114.7 32.2609 114.584C27.9828 114.468 23.5891 114.584 19.3109 114.584H18.5016V144.531H21.9703V133.2H27.4047C28.0984 133.2 28.6766 133.431 29.0234 134.009L35.9609 144.762C36.0766 144.993 36.4234 145.34 36.6547 145.34H41.1641C38.3891 141.062 35.7297 137.015 32.9547 132.853C35.3828 132.506 37.4641 131.696 38.8516 129.846V129.846ZM21.9703 129.615V118.168H23.2422C25.9016 118.168 28.6766 118.053 31.3359 118.284C34.4578 118.4 36.6547 120.828 36.6547 123.95C36.6547 127.071 34.1109 129.5 30.9891 129.615C28.2141 129.731 25.4391 129.615 21.9703 129.615V129.615ZM66.7172 131.118C64.8672 123.025 57.4672 120.943 51.8016 123.487C47.4078 125.453 45.4422 129.268 45.3266 134.009C45.2109 137.593 46.2516 140.831 49.0266 143.259C52.1484 146.034 55.9641 146.381 59.8953 145.687C62.0922 145.225 64.0578 144.184 65.5609 142.565C64.9828 141.756 64.4047 140.946 63.8266 140.253C60.5891 143.028 57.0047 143.953 53.0734 142.103C50.5297 140.831 49.2578 137.709 49.0266 135.396H66.9484V133.893C67.0641 132.853 66.9484 131.928 66.7172 131.118V131.118ZM49.2578 132.968C48.9109 129.5 52.3797 125.8 56.1953 125.8C60.5891 125.684 63.3641 128.343 63.4797 132.968H49.2578V132.968ZM84.7547 122.909C83.0203 122.562 81.1703 122.446 79.4359 122.562C76.6609 122.793 74.2328 124.065 72.2672 126.146C72.8453 126.956 73.3078 127.765 74.0016 128.69C74.2328 128.459 74.4641 128.228 74.6953 128.112C76.5453 126.378 78.7422 125.453 81.4016 125.684C83.4828 125.8 85.4484 126.493 86.0266 128.575C86.4891 130.193 86.3735 131.928 86.4891 133.662C86.1422 133.662 86.0266 133.546 85.911 133.431C83.1359 131.118 80.0141 130.656 76.6609 131.465C73.5391 132.275 71.5734 134.703 71.3422 137.825C71.1109 141.409 72.7297 144.068 75.8516 145.34C77.8172 146.15 80.0141 146.15 82.0953 145.687C83.7141 145.34 84.4078 144.415 86.7203 143.143V144.646H89.9578C89.9578 140.021 90.0735 134.356 89.9578 129.037C89.9578 125.684 87.9922 123.603 84.7547 122.909ZM86.3734 137.478C86.2578 137.825 86.3734 138.171 86.3734 138.518C86.3734 140.946 85.7953 141.756 83.4828 142.681C81.8641 143.259 80.1297 143.49 78.3953 142.912C76.4297 142.334 75.0422 140.6 75.0422 138.634C74.9266 136.668 76.1984 134.703 78.1641 134.125C80.8234 133.2 83.2516 133.778 85.4484 135.396C86.1422 135.975 86.6047 136.553 86.3734 137.478V137.478ZM104.411 126.031C107.417 125.106 110.192 125.684 112.273 128.228L112.62 128.459C113.43 127.765 114.123 127.071 115.048 126.262C114.702 125.915 114.586 125.684 114.355 125.337C111.002 121.753 104.411 121.29 100.364 124.181C94.6985 128.343 94.8141 136.437 97.5891 140.715C100.248 144.762 104.064 146.15 108.573 145.571C111.233 145.225 113.43 143.953 115.164 141.756C114.355 141.062 113.545 140.368 112.736 139.559C112.505 139.79 112.389 139.906 112.273 140.137C109.152 143.606 103.948 143.259 101.173 139.559C99.5547 137.362 99.2078 134.818 99.6703 132.275C99.9016 129.384 101.405 127.071 104.411 126.031ZM128.461 141.756C128.23 141.871 128.114 141.987 128.114 141.987C127.189 142.681 126.264 142.796 125.223 142.45C124.183 141.987 124.067 141.062 123.952 140.137V126.956C123.952 126.725 123.952 127.187 124.067 126.031H128.461V122.562H123.836V116.781H120.367V123.025H117.361C117.13 123.025 116.783 123.256 116.783 123.487C116.667 124.296 116.783 124.875 116.783 126.031H120.483V140.831C120.483 142.681 120.945 144.3 122.564 145.225C124.298 146.265 127.652 146.034 129.155 144.762C129.386 144.646 129.502 144.184 129.502 144.068C129.155 143.375 128.808 142.565 128.461 141.756V141.756Z" fill="black"/>
</svg>
