<svg width="148" height="148" viewBox="0 0 148 148" fill="none" xmlns="http://www.w3.org/2000/svg">
<path d="M0 0H148V148H0V0Z" fill="#34BDB2"/>
<path d="M97.3902 50.321C89.5763 45.7873 82.64 42.222 73.5657 42.3793C68.3742 42.4694 63.9168 45.2913 62.9797 50.4557C62.1073 55.2605 66.3785 57.9256 70.8219 59.5617C78.1913 62.2754 84.6067 65.1406 91.8478 68.1579C105.011 73.6437 111.761 82.5277 110.963 93.9266C109.948 108.43 101.219 118.832 87.3471 122.262C69.2205 126.743 51.6184 119.917 36.7461 110.387C40.4999 104.669 44.8549 100.765 48.5861 95.0817C57.1782 98.7389 63.9284 103.681 72.9171 104.451C79.255 104.995 86.4365 104.692 87.8604 97.248C89.1439 90.5348 83.3013 86.9359 77.6028 84.9258C70.8185 82.5329 64.0469 79.6059 57.3938 76.8887C45.0954 71.8654 40.0911 62.0401 40.9335 50.4655C40.9335 43.6789 46.5644 29.9617 60.3706 25.6951C81.5832 19.1392 93.2705 25.8524 108.653 35.7378C104.567 41.1409 101.426 44.9826 97.3902 50.321Z" fill="white"/>
</svg>
