<svg width="148" height="148" viewBox="0 0 148 148" fill="none" xmlns="http://www.w3.org/2000/svg">
<path d="M0 74V0H148V148H0" fill="#007ACC"/>
<path d="M32.4492 74.2588V80.2898H51.6892V135.05H65.3422V80.2898H84.5822V74.3698C84.5822 71.0398 84.5822 68.3388 84.4342 68.2648C84.4342 68.1538 72.7052 68.1168 58.4602 68.1168L32.5602 68.2278V74.2958L32.4492 74.2588V74.2588ZM118.918 68.0798C122.692 68.9678 125.578 70.6698 128.168 73.3708C129.537 74.8508 131.572 77.4408 131.72 78.1068C131.72 78.3288 125.319 82.6578 121.434 85.0628C121.286 85.1738 120.694 84.5448 120.102 83.5828C118.178 80.8448 116.217 79.6608 113.146 79.4388C108.706 79.1428 105.746 81.4738 105.746 85.3588C105.746 86.5428 105.968 87.2088 106.412 88.1708C107.411 90.2058 109.261 91.4268 114.996 93.9428C125.578 98.4938 130.166 101.491 132.941 105.783C136.086 110.593 136.789 118.141 134.68 123.802C132.312 129.981 126.54 134.162 118.289 135.531C115.699 135.975 109.779 135.901 107.004 135.42C101.084 134.31 95.4232 131.35 91.9452 127.539C90.5762 126.059 87.9492 122.1 88.0972 121.841L89.5032 120.953L95.0532 117.734L99.2342 115.292L100.196 116.587C101.417 118.511 104.155 121.101 105.746 121.989C110.556 124.468 116.994 124.135 120.176 121.249C121.545 119.991 122.137 118.659 122.137 116.809C122.137 115.107 121.878 114.33 121.027 113.035C119.843 111.407 117.475 110.075 110.815 107.115C103.156 103.859 99.9002 101.787 96.8662 98.6048C95.1272 96.6808 93.5362 93.6838 92.7962 91.2048C92.2412 89.0588 92.0562 83.8048 92.5742 81.6958C94.1652 74.2958 99.7522 69.1158 107.744 67.6358C110.334 67.1178 116.439 67.3398 118.992 68.0058L118.918 68.0798V68.0798Z" fill="white"/>
</svg>
