<svg width="375" height="377" viewBox="0 0 375 377" fill="none" xmlns="http://www.w3.org/2000/svg">
<g clip-path="url(#clip0_402:5002)">
<rect width="375" height="377" fill="#3F3F3F"/>
<path d="M100.729 149.193L101.882 145.363L97.6791 146.605L100.729 149.193ZM204.728 92.6934L207.184 89.5357L203.927 87.0034L201.496 90.3367L204.728 92.6934ZM272 145L269.545 148.158L272.835 150.716L275.256 147.324L272 145ZM356.945 30.8408C356.581 28.6618 354.52 27.1906 352.341 27.5547L316.833 33.4879C314.654 33.8519 313.183 35.9135 313.547 38.0924C313.911 40.2713 315.973 41.7426 318.152 41.3785L349.714 36.1045L354.988 67.6669C355.352 69.8459 357.413 71.3171 359.592 70.953C361.771 70.5889 363.243 68.5274 362.878 66.3485L356.945 30.8408ZM152.228 164.693L151.075 168.524L153.79 169.341L155.46 167.05L152.228 164.693ZM32.2092 236.126L103.779 151.781L97.6791 146.605L26.1093 230.95L32.2092 236.126ZM202.273 95.8512L269.545 148.158L274.455 141.842L207.184 89.5357L202.273 95.8512ZM275.256 147.324L356.256 33.8236L349.744 29.1764L268.744 142.676L275.256 147.324ZM99.5762 153.024L151.075 168.524L153.381 160.863L101.882 145.363L99.5762 153.024ZM155.46 167.05L207.96 95.0501L201.496 90.3367L148.996 162.337L155.46 167.05Z" fill="#E1A103"/>
<rect width="40" height="140" transform="translate(42 92)" fill="#292929"/>
<rect width="8" height="8" transform="translate(46 100)" fill="#3F3F3F"/>
<rect width="8" height="8" transform="translate(58 100)" fill="#3F3F3F"/>
<rect width="8" height="8" transform="translate(70 100)" fill="#3F3F3F"/>
<rect width="8" height="8" transform="translate(46 118)" fill="#3F3F3F"/>
<rect width="8" height="8" transform="translate(58 118)" fill="#3F3F3F"/>
<rect width="8" height="8" transform="translate(70 118)" fill="#3F3F3F"/>
<rect width="8" height="8" transform="translate(46 136)" fill="#3F3F3F"/>
<rect width="8" height="8" transform="translate(58 136)" fill="#3F3F3F"/>
<rect width="8" height="8" transform="translate(70 136)" fill="#3F3F3F"/>
<rect width="8" height="8" transform="translate(46 154)" fill="#3F3F3F"/>
<rect width="8" height="8" transform="translate(58 154)" fill="#3F3F3F"/>
<rect width="8" height="8" transform="translate(70 154)" fill="#3F3F3F"/>
<rect width="8" height="8" transform="translate(46 172)" fill="#3F3F3F"/>
<rect width="8" height="8" transform="translate(58 172)" fill="#3F3F3F"/>
<rect width="8" height="8" transform="translate(70 172)" fill="#E1A103"/>
<rect width="8" height="8" transform="translate(46 190)" fill="#3F3F3F"/>
<rect width="8" height="8" transform="translate(58 190)" fill="#E1A103"/>
<rect width="8" height="8" transform="translate(70 190)" fill="#3F3F3F"/>
<rect width="8" height="8" transform="translate(46 208)" fill="#E1A103"/>
<rect width="8" height="8" transform="translate(58 208)" fill="#3F3F3F"/>
<rect width="8" height="8" transform="translate(70 208)" fill="#3F3F3F"/>
<rect width="52" height="140" transform="translate(283 92)" fill="#292929"/>
<rect width="8" height="8" transform="translate(287 100)" fill="#3F3F3F"/>
<rect width="8" height="8" transform="translate(299 100)" fill="#E1A103"/>
<rect width="8" height="8" transform="translate(311 100)" fill="#3F3F3F"/>
<rect width="8" height="8" transform="translate(323 100)" fill="#3F3F3F"/>
<rect width="8" height="8" transform="translate(287 118)" fill="#E1A103"/>
<rect width="8" height="8" transform="translate(299 118)" fill="#3F3F3F"/>
<rect width="8" height="8" transform="translate(311 118)" fill="#3F3F3F"/>
<rect width="8" height="8" transform="translate(323 118)" fill="#3F3F3F"/>
<rect width="8" height="8" transform="translate(287 136)" fill="#3F3F3F"/>
<rect width="8" height="8" transform="translate(299 136)" fill="#3F3F3F"/>
<rect width="8" height="8" transform="translate(311 136)" fill="#3F3F3F"/>
<rect width="8" height="8" transform="translate(323 136)" fill="#3F3F3F"/>
<rect width="8" height="8" transform="translate(287 154)" fill="#3F3F3F"/>
<rect width="8" height="8" transform="translate(299 154)" fill="#3F3F3F"/>
<rect width="8" height="8" transform="translate(311 154)" fill="#3F3F3F"/>
<rect width="8" height="8" transform="translate(323 154)" fill="#3F3F3F"/>
<rect width="8" height="8" transform="translate(287 172)" fill="#3F3F3F"/>
<rect width="8" height="8" transform="translate(299 172)" fill="#3F3F3F"/>
<rect width="8" height="8" transform="translate(311 172)" fill="#3F3F3F"/>
<rect width="8" height="8" transform="translate(323 172)" fill="#3F3F3F"/>
<rect width="8" height="8" transform="translate(287 190)" fill="#3F3F3F"/>
<rect width="8" height="8" transform="translate(299 190)" fill="#3F3F3F"/>
<rect width="8" height="8" transform="translate(311 190)" fill="#3F3F3F"/>
<rect width="8" height="8" transform="translate(323 190)" fill="#3F3F3F"/>
<rect width="8" height="8" transform="translate(287 208)" fill="#3F3F3F"/>
<rect width="8" height="8" transform="translate(299 208)" fill="#3F3F3F"/>
<rect width="8" height="8" transform="translate(311 208)" fill="#3F3F3F"/>
<rect width="8" height="8" transform="translate(323 208)" fill="#3F3F3F"/>
<rect width="52" height="104" transform="translate(113 122)" fill="#292929"/>
<rect width="8" height="8" transform="translate(117 130)" fill="#3F3F3F"/>
<rect width="8" height="8" transform="translate(129 130)" fill="#3F3F3F"/>
<rect width="8" height="8" transform="translate(141 130)" fill="#3F3F3F"/>
<rect width="8" height="8" transform="translate(153 130)" fill="#3F3F3F"/>
<rect width="8" height="8" transform="translate(117 148)" fill="#E1A103"/>
<rect width="8" height="8" transform="translate(129 148)" fill="#E1A103"/>
<rect width="8" height="8" transform="translate(141 148)" fill="#E1A103"/>
<rect width="8" height="8" transform="translate(153 148)" fill="#E1A103"/>
<rect width="8" height="8" transform="translate(117 166)" fill="#3F3F3F"/>
<rect width="8" height="8" transform="translate(129 166)" fill="#3F3F3F"/>
<rect width="8" height="8" transform="translate(141 166)" fill="#3F3F3F"/>
<rect width="8" height="8" transform="translate(153 166)" fill="#3F3F3F"/>
<rect width="8" height="8" transform="translate(117 184)" fill="#3F3F3F"/>
<rect width="8" height="8" transform="translate(129 184)" fill="#3F3F3F"/>
<rect width="8" height="8" transform="translate(141 184)" fill="#3F3F3F"/>
<rect width="8" height="8" transform="translate(153 184)" fill="#3F3F3F"/>
<rect width="8" height="8" transform="translate(117 202)" fill="#3F3F3F"/>
<rect width="8" height="8" transform="translate(129 202)" fill="#3F3F3F"/>
<rect width="8" height="8" transform="translate(141 202)" fill="#3F3F3F"/>
<rect width="8" height="8" transform="translate(153 202)" fill="#3F3F3F"/>
<rect width="32" height="86" transform="translate(199 141)" fill="#292929"/>
<rect width="8" height="8" transform="translate(203 149)" fill="#3F3F3F"/>
<rect width="8" height="8" transform="translate(219 149)" fill="#3F3F3F"/>
<rect width="8" height="8" transform="translate(203 167)" fill="#3F3F3F"/>
<rect width="8" height="8" transform="translate(219 167)" fill="#3F3F3F"/>
<rect width="8" height="8" transform="translate(203 185)" fill="#3F3F3F"/>
<rect width="8" height="8" transform="translate(219 185)" fill="#3F3F3F"/>
<rect width="8" height="8" transform="translate(203 203)" fill="#3F3F3F"/>
<rect width="8" height="8" transform="translate(219 203)" fill="#3F3F3F"/>
<rect width="52" height="50" transform="translate(36 295)" fill="#292929"/>
<rect width="8" height="8" transform="translate(40 303)" fill="#3F3F3F"/>
<rect width="8" height="8" transform="translate(52 303)" fill="#3F3F3F"/>
<rect width="8" height="8" transform="translate(64 303)" fill="#3F3F3F"/>
<rect width="8" height="8" transform="translate(76 303)" fill="#3F3F3F"/>
<rect width="8" height="8" transform="translate(40 321)" fill="#3F3F3F"/>
<rect width="8" height="8" transform="translate(52 321)" fill="#E1A103"/>
<rect width="8" height="8" transform="translate(64 321)" fill="#E1A103"/>
<rect width="8" height="8" transform="translate(76 321)" fill="#3F3F3F"/>
<rect width="52" height="50" transform="translate(120 295)" fill="#292929"/>
<rect width="8" height="8" transform="translate(124 303)" fill="#3F3F3F"/>
<rect width="8" height="8" transform="translate(136 303)" fill="#E1A103"/>
<rect width="8" height="8" transform="translate(148 303)" fill="#E1A103"/>
<rect width="8" height="8" transform="translate(160 303)" fill="#3F3F3F"/>
<rect width="8" height="8" transform="translate(124 321)" fill="#3F3F3F"/>
<rect width="8" height="8" transform="translate(136 321)" fill="#E1A103"/>
<rect width="8" height="8" transform="translate(148 321)" fill="#3F3F3F"/>
<rect width="8" height="8" transform="translate(160 321)" fill="#3F3F3F"/>
<rect width="52" height="50" transform="translate(204 295)" fill="#292929"/>
<rect width="8" height="8" transform="translate(208 303)" fill="#3F3F3F"/>
<rect width="8" height="8" transform="translate(220 303)" fill="#3F3F3F"/>
<rect width="8" height="8" transform="translate(232 303)" fill="#3F3F3F"/>
<rect width="8" height="8" transform="translate(244 303)" fill="#3F3F3F"/>
<rect width="8" height="8" transform="translate(208 321)" fill="#E1A103"/>
<rect width="8" height="8" transform="translate(220 321)" fill="#E1A103"/>
<rect width="8" height="8" transform="translate(232 321)" fill="#E1A103"/>
<rect width="8" height="8" transform="translate(244 321)" fill="#E1A103"/>
<rect width="52" height="50" transform="translate(288 295)" fill="#292929"/>
<rect width="8" height="8" transform="translate(292 303)" fill="#3F3F3F"/>
<rect width="8" height="8" transform="translate(304 303)" fill="#E1A103"/>
<rect width="8" height="8" transform="translate(316 303)" fill="#E1A103"/>
<rect width="8" height="8" transform="translate(328 303)" fill="#E1A103"/>
<rect width="8" height="8" transform="translate(292 321)" fill="#3F3F3F"/>
<rect width="8" height="8" transform="translate(304 321)" fill="#3F3F3F"/>
<rect width="8" height="8" transform="translate(316 321)" fill="#3F3F3F"/>
<rect width="8" height="8" transform="translate(328 321)" fill="#E1A103"/>
<rect x="-8" y="259" width="16" height="4" fill="#9A9A98"/>
<rect x="16" y="259" width="16" height="4" fill="#9A9A98"/>
<rect x="40" y="259" width="16" height="4" fill="#9A9A98"/>
<rect x="64" y="259" width="16" height="4" fill="#9A9A98"/>
<rect x="88" y="259" width="16" height="4" fill="#9A9A98"/>
<rect x="112" y="259" width="16" height="4" fill="#9A9A98"/>
<rect x="136" y="259" width="16" height="4" fill="#9A9A98"/>
<rect x="160" y="259" width="16" height="4" fill="#9A9A98"/>
<rect x="184" y="259" width="16" height="4" fill="#9A9A98"/>
<rect x="208" y="259" width="16" height="4" fill="#9A9A98"/>
<rect x="232" y="259" width="16" height="4" fill="#9A9A98"/>
<rect x="256" y="259" width="16" height="4" fill="#9A9A98"/>
<rect x="280" y="259" width="16" height="4" fill="#9A9A98"/>
<rect x="304" y="259" width="16" height="4" fill="#9A9A98"/>
<rect x="328" y="259" width="16" height="4" fill="#9A9A98"/>
<rect x="352" y="259" width="16" height="4" fill="#9A9A98"/>
</g>
<defs>
<clipPath id="clip0_402:5002">
<rect width="375" height="377" fill="white"/>
</clipPath>
</defs>
</svg>
