<svg width="378" height="380" viewBox="0 0 378 380" fill="none" xmlns="http://www.w3.org/2000/svg">
<rect x="3" width="375" height="377" fill="#3F3F3F"/>
<rect x="72" y="47.0508" width="32.8657" height="65.7314" rx="2" fill="url(#paint0_linear)"/>
<path fill-rule="evenodd" clip-rule="evenodd" d="M75.0938 47.0508C73.9892 47.0508 73.0938 47.9462 73.0938 49.0508V110.782C73.0938 111.887 73.9892 112.782 75.0937 112.782H103.959C105.064 112.782 105.959 111.887 105.959 110.782V49.0508C105.959 47.9462 105.064 47.0508 103.959 47.0508H75.0938ZM76.1892 48.1463C75.0846 48.1463 74.1892 49.0417 74.1892 50.1463V106.4C74.1892 107.505 75.0846 108.4 76.1892 108.4H102.864C103.968 108.4 104.864 107.505 104.864 106.4V50.1463C104.864 49.0417 103.968 48.1463 102.864 48.1463H76.1892Z" fill="#343232"/>
<path d="M97.5707 50.3377C97.5707 50.7356 97.8933 51.0582 98.2912 51.0582C98.6891 51.0582 99.0117 50.7356 99.0117 50.3377C99.0117 49.9398 98.6891 49.6172 98.2912 49.6172C97.8933 49.6172 97.5707 49.9398 97.5707 50.3377Z" fill="#9A9A98" stroke="#202020" stroke-width="0.75"/>
<path fill-rule="evenodd" clip-rule="evenodd" d="M89.5 76.833C91.1683 76.833 92.5571 78.0201 92.8688 79.6013C94.0604 79.6838 95 80.6647 95 81.8747C95 83.1397 93.9733 84.1663 92.7083 84.1663H86.75C85.2329 84.1663 84 82.9334 84 81.4163C84 80.0001 85.0725 78.8313 86.4521 78.6847C87.025 77.5847 88.1754 76.833 89.5 76.833ZM88.2632 82.4661C88.4419 82.6448 88.7307 82.6448 88.9094 82.4661L91.2836 80.0919C91.4624 79.9132 91.4624 79.6244 91.2836 79.4457C91.1049 79.2669 90.8161 79.2669 90.6374 79.4457L88.584 81.499L87.9469 80.8619C87.7682 80.6832 87.4794 80.6832 87.3007 80.8619C87.2149 80.9475 87.1666 81.0638 87.1666 81.185C87.1666 81.3063 87.2149 81.4225 87.3007 81.5082L88.2632 82.4661Z" fill="#9A9A98"/>
<rect x="122.113" y="230.003" width="133.145" height="88.7635" rx="2" fill="url(#paint1_linear)"/>
<path fill-rule="evenodd" clip-rule="evenodd" d="M124.113 230.003C123.009 230.003 122.113 230.898 122.113 232.003V316.766C122.113 317.871 123.009 318.766 124.113 318.766H253.258C254.363 318.766 255.258 317.871 255.258 316.766V232.003C255.258 230.898 254.363 230.003 253.258 230.003H124.113ZM248.158 234.737H129.215V314.032H248.158V234.737Z" fill="#343232"/>
<mask id="path-8-inside-1" fill="white">
<ellipse cx="188.98" cy="232.962" rx="1.18351" ry="1.18351"/>
</mask>
<ellipse cx="188.98" cy="232.962" rx="1.18351" ry="1.18351" fill="#9A9A98"/>
<path d="M188.664 232.962C188.664 232.787 188.806 232.645 188.98 232.645V235.645C190.462 235.645 191.664 234.444 191.664 232.962H188.664ZM188.98 232.645C189.155 232.645 189.297 232.787 189.297 232.962H186.297C186.297 234.444 187.498 235.645 188.98 235.645V232.645ZM189.297 232.962C189.297 233.137 189.155 233.278 188.98 233.278V230.278C187.498 230.278 186.297 231.48 186.297 232.962H189.297ZM188.98 233.278C188.806 233.278 188.664 233.137 188.664 232.962H191.664C191.664 231.48 190.462 230.278 188.98 230.278V233.278Z" fill="#202020" mask="url(#path-8-inside-1)"/>
<path fill-rule="evenodd" clip-rule="evenodd" d="M190 266C193.64 266 196.67 268.59 197.35 272.04C199.95 272.22 202 274.36 202 277C202 279.76 199.76 282 197 282H184C180.69 282 178 279.31 178 276C178 272.91 180.34 270.36 183.35 270.04C184.6 267.64 187.11 266 190 266ZM187.3 278.29C187.69 278.68 188.32 278.68 188.71 278.29L193.89 273.11C194.28 272.72 194.28 272.09 193.89 271.7C193.5 271.31 192.87 271.31 192.48 271.7L188 276.18L186.61 274.79C186.22 274.4 185.59 274.4 185.2 274.79C185.013 274.977 184.908 275.23 184.908 275.495C184.908 275.76 185.013 276.013 185.2 276.2L187.3 278.29Z" fill="#9A9A98"/>
<path d="M121.776 319.51C122.156 319.039 122.728 318.766 123.333 318.766H253.623C254.293 318.766 254.918 319.1 255.288 319.658L267.985 338.736C268.869 340.065 267.916 341.844 266.32 341.844H107.951C106.271 341.844 105.339 339.897 106.394 338.589L121.776 319.51Z" fill="#9A9A98"/>
<path d="M170.571 332.114C170.643 331.917 170.831 331.785 171.041 331.785H203.848C204.068 331.785 204.263 331.929 204.327 332.14L206.536 339.425C206.633 339.746 206.393 340.07 206.058 340.07H168.39C168.043 340.07 167.801 339.725 167.92 339.399L170.571 332.114Z" fill="#3F3F3F"/>
<path fill-rule="evenodd" clip-rule="evenodd" d="M307.5 86.5C310.685 86.5 313.336 88.7662 313.931 91.785C316.206 91.9425 318 93.815 318 96.125C318 98.54 316.04 100.5 313.625 100.5H302.25C299.354 100.5 297 98.1462 297 95.25C297 92.5462 299.047 90.315 301.681 90.035C302.775 87.935 304.971 86.5 307.5 86.5ZM305.138 97.2538C305.479 97.595 306.03 97.595 306.371 97.2538L310.904 92.7213C311.245 92.38 311.245 91.8288 310.904 91.4875C310.563 91.1463 310.011 91.1463 309.67 91.4875L305.75 95.4075L304.534 94.1913C304.193 93.85 303.641 93.85 303.3 94.1913C303.136 94.3548 303.044 94.5767 303.044 94.8082C303.044 95.0396 303.136 95.2616 303.3 95.425L305.138 97.2538Z" fill="#9A9A98"/>
<path fill-rule="evenodd" clip-rule="evenodd" d="M347.164 37C347.164 35.8954 346.269 35 345.164 35L270.099 35C268.995 35 268.099 35.8954 268.099 37L268.099 148.004C268.099 149.108 268.995 150.004 270.099 150.004L345.164 150.004C346.269 150.004 347.164 149.108 347.164 148.004L347.164 37ZM341.571 144.413L341.571 40.5901L272.888 40.5901L272.888 144.413L341.571 144.413Z" fill="#343232"/>
<path d="M268.102 35L347.167 35V150.004H268.102V35Z" fill="url(#paint2_linear)"/>
<g filter="url(#filter0_i)">
<circle cx="307.632" cy="147.207" r="1.19795" transform="rotate(-90 307.632 147.207)" fill="#C4C4C4"/>
</g>
<ellipse rx="2.25065" ry="2.27424" transform="matrix(0.861452 0.507839 -0.492202 0.870481 155.819 138.764)" fill="#E1A103"/>
<ellipse rx="2.25065" ry="2.27424" transform="matrix(0.861452 0.507839 -0.492202 0.870481 126.737 121.62)" fill="#E1A103"/>
<ellipse rx="2.25065" ry="2.27424" transform="matrix(0.861452 0.507839 -0.492202 0.870481 165.519 144.479)" fill="#E1A103"/>
<ellipse rx="2.25065" ry="2.27424" transform="matrix(0.861452 0.507839 -0.492202 0.870481 136.433 127.334)" fill="#E1A103"/>
<ellipse rx="2.25065" ry="2.27424" transform="matrix(0.861452 0.507839 -0.492202 0.870481 117.042 115.905)" fill="#E1A103"/>
<ellipse rx="2.25065" ry="2.27424" transform="matrix(0.861452 0.507839 -0.492202 0.870481 175.21 150.193)" fill="#E1A103"/>
<ellipse rx="2.25065" ry="2.27424" transform="matrix(0.861452 0.507839 -0.492202 0.870481 146.128 133.049)" fill="#E1A103"/>
<ellipse rx="2.25065" ry="2.27424" transform="matrix(-0.861452 0.507839 0.492202 0.870481 221.528 138.764)" fill="#E1A103"/>
<ellipse rx="2.25065" ry="2.27424" transform="matrix(-0.861452 0.507839 0.492202 0.870481 250.61 121.62)" fill="#E1A103"/>
<ellipse rx="2.25065" ry="2.27424" transform="matrix(-0.861452 0.507839 0.492202 0.870481 211.829 144.479)" fill="#E1A103"/>
<ellipse rx="2.25065" ry="2.27424" transform="matrix(-0.861452 0.507839 0.492202 0.870481 240.915 127.334)" fill="#E1A103"/>
<ellipse rx="2.25065" ry="2.27424" transform="matrix(-0.861452 0.507839 0.492202 0.870481 260.306 115.905)" fill="#E1A103"/>
<ellipse rx="2.25065" ry="2.27424" transform="matrix(-0.861452 0.507839 0.492202 0.870481 202.138 150.193)" fill="#E1A103"/>
<ellipse rx="2.25065" ry="2.27424" transform="matrix(-0.861452 0.507839 0.492202 0.870481 231.22 133.049)" fill="#E1A103"/>
<circle cx="188.672" cy="195.752" r="2.19105" transform="rotate(90 188.672 195.752)" fill="#E1A103"/>
<circle cx="188.672" cy="162.886" r="2.19105" transform="rotate(90 188.672 162.886)" fill="#E1A103"/>
<circle cx="188.672" cy="206.706" r="2.19105" transform="rotate(90 188.672 206.706)" fill="#E1A103"/>
<circle cx="188.672" cy="173.841" r="2.19105" transform="rotate(90 188.672 173.841)" fill="#E1A103"/>
<circle cx="188.672" cy="217.661" r="2.19105" transform="rotate(90 188.672 217.661)" fill="#E1A103"/>
<circle cx="188.672" cy="184.797" r="2.19105" transform="rotate(90 188.672 184.797)" fill="#E1A103"/>
<ellipse cx="188.5" cy="160" rx="6.5" ry="6" fill="#E1A103"/>
<defs>
<filter id="filter0_i" x="306.434" y="146.01" width="2.39591" height="6.39591" filterUnits="userSpaceOnUse" color-interpolation-filters="sRGB">
<feFlood flood-opacity="0" result="BackgroundImageFix"/>
<feBlend mode="normal" in="SourceGraphic" in2="BackgroundImageFix" result="shape"/>
<feColorMatrix in="SourceAlpha" type="matrix" values="0 0 0 0 0 0 0 0 0 0 0 0 0 0 0 0 0 0 127 0" result="hardAlpha"/>
<feOffset dy="4"/>
<feGaussianBlur stdDeviation="2"/>
<feComposite in2="hardAlpha" operator="arithmetic" k2="-1" k3="1"/>
<feColorMatrix type="matrix" values="0 0 0 0 0 0 0 0 0 0 0 0 0 0 0 0 0 0 0.25 0"/>
<feBlend mode="normal" in2="shape" result="effect1_innerShadow"/>
</filter>
<linearGradient id="paint0_linear" x1="108.408" y1="125.766" x2="68.3643" y2="117.045" gradientUnits="userSpaceOnUse">
<stop stop-color="#3F3F3F"/>
<stop offset="1" stop-color="#343232" stop-opacity="0"/>
</linearGradient>
<linearGradient id="paint1_linear" x1="269.607" y1="336.3" x2="150.525" y2="258.495" gradientUnits="userSpaceOnUse">
<stop stop-color="#3F3F3F"/>
<stop offset="1" stop-color="#343232" stop-opacity="0"/>
</linearGradient>
<linearGradient id="paint2_linear" x1="355.687" y1="172.72" x2="263.09" y2="144.991" gradientUnits="userSpaceOnUse">
<stop stop-color="#3F3F3F"/>
<stop offset="1" stop-color="#343232" stop-opacity="0"/>
</linearGradient>
</defs>
</svg>
