<svg width="375" height="377" viewBox="0 0 375 377" fill="none" xmlns="http://www.w3.org/2000/svg">
<path d="M0 0H375V377H0V0Z" fill="#3F3F3F"/>
<rect x="72" y="48.0508" width="32.8657" height="65.7314" rx="2" fill="url(#paint0_linear)"/>
<path fill-rule="evenodd" clip-rule="evenodd" d="M75.0938 48.0508C73.9892 48.0508 73.0938 48.9462 73.0938 50.0508V111.782C73.0938 112.887 73.9892 113.782 75.0937 113.782H103.959C105.064 113.782 105.959 112.887 105.959 111.782V50.0508C105.959 48.9462 105.064 48.0508 103.959 48.0508H75.0938ZM76.1892 49.1463C75.0846 49.1463 74.1892 50.0417 74.1892 51.1463V107.4C74.1892 108.505 75.0846 109.4 76.1892 109.4H102.864C103.968 109.4 104.864 108.505 104.864 107.4V51.1463C104.864 50.0417 103.968 49.1463 102.864 49.1463H76.1892Z" fill="#292929"/>
<path d="M97.5707 51.3377C97.5707 51.7356 97.8933 52.0582 98.2912 52.0582C98.6891 52.0582 99.0117 51.7356 99.0117 51.3377C99.0117 50.9398 98.6891 50.6172 98.2912 50.6172C97.8933 50.6172 97.5707 50.9398 97.5707 51.3377Z" fill="#9A9A98" stroke="#202020" stroke-width="0.75"/>
<path fill-rule="evenodd" clip-rule="evenodd" d="M89.5 77.833C91.1683 77.833 92.5571 79.0201 92.8688 80.6013C94.0604 80.6838 95 81.6647 95 82.8747C95 84.1397 93.9733 85.1663 92.7083 85.1663H86.75C85.2329 85.1663 84 83.9334 84 82.4163C84 81.0001 85.0725 79.8313 86.4521 79.6847C87.025 78.5847 88.1754 77.833 89.5 77.833ZM88.2632 83.4661C88.4419 83.6448 88.7307 83.6448 88.9094 83.4661L91.2836 81.0919C91.4624 80.9132 91.4624 80.6244 91.2836 80.4457C91.1049 80.2669 90.8161 80.2669 90.6374 80.4457L88.584 82.499L87.9469 81.8619C87.7682 81.6832 87.4794 81.6832 87.3007 81.8619C87.2149 81.9475 87.1666 82.0638 87.1666 82.185C87.1666 82.3063 87.2149 82.4225 87.3007 82.5082L88.2632 83.4661Z" fill="#9A9A98"/>
<rect x="122.113" y="231.003" width="133.145" height="88.7635" rx="2" fill="url(#paint1_linear)"/>
<path fill-rule="evenodd" clip-rule="evenodd" d="M124.113 231.003C123.009 231.003 122.113 231.898 122.113 233.003V317.766C122.113 318.871 123.009 319.766 124.113 319.766H253.258C254.363 319.766 255.258 318.871 255.258 317.766V233.003C255.258 231.898 254.363 231.003 253.258 231.003H124.113ZM248.158 235.737H129.215V315.032H248.158V235.737Z" fill="#292929"/>
<mask id="path-8-inside-1" fill="white">
<ellipse cx="188.98" cy="233.962" rx="1.18351" ry="1.18351"/>
</mask>
<ellipse cx="188.98" cy="233.962" rx="1.18351" ry="1.18351" fill="#9A9A98"/>
<path d="M188.664 233.962C188.664 233.787 188.806 233.645 188.98 233.645V236.645C190.462 236.645 191.664 235.444 191.664 233.962H188.664ZM188.98 233.645C189.155 233.645 189.297 233.787 189.297 233.962H186.297C186.297 235.444 187.498 236.645 188.98 236.645V233.645ZM189.297 233.962C189.297 234.137 189.155 234.278 188.98 234.278V231.278C187.498 231.278 186.297 232.48 186.297 233.962H189.297ZM188.98 234.278C188.806 234.278 188.664 234.137 188.664 233.962H191.664C191.664 232.48 190.462 231.278 188.98 231.278V234.278Z" fill="#202020" mask="url(#path-8-inside-1)"/>
<path fill-rule="evenodd" clip-rule="evenodd" d="M190 267C193.64 267 196.67 269.59 197.35 273.04C199.95 273.22 202 275.36 202 278C202 280.76 199.76 283 197 283H184C180.69 283 178 280.31 178 277C178 273.91 180.34 271.36 183.35 271.04C184.6 268.64 187.11 267 190 267ZM187.3 279.29C187.69 279.68 188.32 279.68 188.71 279.29L193.89 274.11C194.28 273.72 194.28 273.09 193.89 272.7C193.5 272.31 192.87 272.31 192.48 272.7L188 277.18L186.61 275.79C186.22 275.4 185.59 275.4 185.2 275.79C185.013 275.977 184.908 276.23 184.908 276.495C184.908 276.76 185.013 277.013 185.2 277.2L187.3 279.29Z" fill="#9A9A98"/>
<path d="M121.776 320.51C122.156 320.039 122.728 319.766 123.333 319.766H253.623C254.293 319.766 254.918 320.1 255.288 320.658L267.985 339.736C268.869 341.065 267.916 342.844 266.32 342.844H107.951C106.271 342.844 105.339 340.897 106.394 339.589L121.776 320.51Z" fill="#9A9A98"/>
<path d="M170.571 333.114C170.643 332.917 170.831 332.785 171.041 332.785H203.848C204.068 332.785 204.263 332.929 204.327 333.14L206.536 340.425C206.633 340.746 206.393 341.07 206.058 341.07H168.39C168.043 341.07 167.801 340.725 167.92 340.399L170.571 333.114Z" fill="#3F3F3F"/>
<path fill-rule="evenodd" clip-rule="evenodd" d="M307.5 87.5C310.685 87.5 313.336 89.7662 313.931 92.785C316.206 92.9425 318 94.815 318 97.125C318 99.54 316.04 101.5 313.625 101.5H302.25C299.354 101.5 297 99.1462 297 96.25C297 93.5462 299.047 91.315 301.681 91.035C302.775 88.935 304.971 87.5 307.5 87.5ZM305.138 98.2538C305.479 98.595 306.03 98.595 306.371 98.2538L310.904 93.7213C311.245 93.38 311.245 92.8288 310.904 92.4875C310.563 92.1463 310.011 92.1463 309.67 92.4875L305.75 96.4075L304.534 95.1913C304.193 94.85 303.641 94.85 303.3 95.1913C303.136 95.3548 303.044 95.5767 303.044 95.8082C303.044 96.0396 303.136 96.2616 303.3 96.425L305.138 98.2538Z" fill="#9A9A98"/>
<path d="M268.098 36L347.163 36V151.004H268.098V36Z" fill="url(#paint2_linear)"/>
<path fill-rule="evenodd" clip-rule="evenodd" d="M347.164 38C347.164 36.8954 346.269 36 345.164 36L270.099 36C268.995 36 268.099 36.8954 268.099 38L268.099 149.004C268.099 150.108 268.995 151.004 270.099 151.004L345.164 151.004C346.269 151.004 347.164 150.108 347.164 149.004L347.164 38ZM341.571 145.413L341.571 41.5901L272.888 41.5901L272.888 145.413L341.571 145.413Z" fill="#292929"/>
<g filter="url(#filter0_i)">
<circle cx="307.632" cy="148.207" r="1.19795" transform="rotate(-90 307.632 148.207)" fill="#C4C4C4"/>
</g>
<ellipse rx="2.25065" ry="2.27424" transform="matrix(0.861452 0.507839 -0.492202 0.870481 155.819 139.764)" fill="#E1A103"/>
<ellipse rx="2.25065" ry="2.27424" transform="matrix(0.861452 0.507839 -0.492202 0.870481 126.737 122.62)" fill="#E1A103"/>
<ellipse rx="2.25065" ry="2.27424" transform="matrix(0.861452 0.507839 -0.492202 0.870481 165.519 145.479)" fill="#E1A103"/>
<ellipse rx="2.25065" ry="2.27424" transform="matrix(0.861452 0.507839 -0.492202 0.870481 136.433 128.334)" fill="#E1A103"/>
<ellipse rx="2.25065" ry="2.27424" transform="matrix(0.861452 0.507839 -0.492202 0.870481 117.042 116.905)" fill="#E1A103"/>
<ellipse rx="2.25065" ry="2.27424" transform="matrix(0.861452 0.507839 -0.492202 0.870481 175.21 151.193)" fill="#E1A103"/>
<ellipse rx="2.25065" ry="2.27424" transform="matrix(0.861452 0.507839 -0.492202 0.870481 146.128 134.049)" fill="#E1A103"/>
<ellipse rx="2.25065" ry="2.27424" transform="matrix(-0.861452 0.507839 0.492202 0.870481 221.528 139.764)" fill="#E1A103"/>
<ellipse rx="2.25065" ry="2.27424" transform="matrix(-0.861452 0.507839 0.492202 0.870481 250.61 122.62)" fill="#E1A103"/>
<ellipse rx="2.25065" ry="2.27424" transform="matrix(-0.861452 0.507839 0.492202 0.870481 211.829 145.479)" fill="#E1A103"/>
<ellipse rx="2.25065" ry="2.27424" transform="matrix(-0.861452 0.507839 0.492202 0.870481 240.915 128.334)" fill="#E1A103"/>
<ellipse rx="2.25065" ry="2.27424" transform="matrix(-0.861452 0.507839 0.492202 0.870481 260.306 116.905)" fill="#E1A103"/>
<ellipse rx="2.25065" ry="2.27424" transform="matrix(-0.861452 0.507839 0.492202 0.870481 202.138 151.193)" fill="#E1A103"/>
<ellipse rx="2.25065" ry="2.27424" transform="matrix(-0.861452 0.507839 0.492202 0.870481 231.22 134.049)" fill="#E1A103"/>
<circle cx="188.672" cy="196.752" r="2.19105" transform="rotate(90 188.672 196.752)" fill="#E1A103"/>
<circle cx="188.672" cy="163.886" r="2.19105" transform="rotate(90 188.672 163.886)" fill="#E1A103"/>
<circle cx="188.672" cy="207.706" r="2.19105" transform="rotate(90 188.672 207.706)" fill="#E1A103"/>
<circle cx="188.672" cy="174.841" r="2.19105" transform="rotate(90 188.672 174.841)" fill="#E1A103"/>
<circle cx="188.672" cy="218.661" r="2.19105" transform="rotate(90 188.672 218.661)" fill="#E1A103"/>
<circle cx="188.672" cy="185.797" r="2.19105" transform="rotate(90 188.672 185.797)" fill="#E1A103"/>
<ellipse cx="188.5" cy="161" rx="6.5" ry="6" fill="#E1A103"/>
<defs>
<filter id="filter0_i" x="306.434" y="147.01" width="2.39591" height="6.39591" filterUnits="userSpaceOnUse" color-interpolation-filters="sRGB">
<feFlood flood-opacity="0" result="BackgroundImageFix"/>
<feBlend mode="normal" in="SourceGraphic" in2="BackgroundImageFix" result="shape"/>
<feColorMatrix in="SourceAlpha" type="matrix" values="0 0 0 0 0 0 0 0 0 0 0 0 0 0 0 0 0 0 127 0" result="hardAlpha"/>
<feOffset dy="4"/>
<feGaussianBlur stdDeviation="2"/>
<feComposite in2="hardAlpha" operator="arithmetic" k2="-1" k3="1"/>
<feColorMatrix type="matrix" values="0 0 0 0 0 0 0 0 0 0 0 0 0 0 0 0 0 0 0.25 0"/>
<feBlend mode="normal" in2="shape" result="effect1_innerShadow"/>
</filter>
<linearGradient id="paint0_linear" x1="108.408" y1="126.766" x2="68.3643" y2="118.045" gradientUnits="userSpaceOnUse">
<stop stop-color="#3F3F3F"/>
<stop offset="1" stop-color="#343232" stop-opacity="0"/>
</linearGradient>
<linearGradient id="paint1_linear" x1="269.607" y1="337.3" x2="150.525" y2="259.495" gradientUnits="userSpaceOnUse">
<stop stop-color="#3F3F3F"/>
<stop offset="1" stop-color="#343232" stop-opacity="0"/>
</linearGradient>
<linearGradient id="paint2_linear" x1="355.683" y1="173.72" x2="263.086" y2="145.991" gradientUnits="userSpaceOnUse">
<stop stop-color="#3F3F3F"/>
<stop offset="1" stop-color="#343232" stop-opacity="0"/>
</linearGradient>
</defs>
</svg>
